<svg width="291" height="205" viewBox="0 0 291 205" fill="none" xmlns="http://www.w3.org/2000/svg">
<path d="M107.873 153.964H64.2432C62.2127 153.961 60.2661 153.154 58.8304 151.718C57.3946 150.282 56.587 148.335 56.5847 146.305V116.597C56.587 114.567 57.3946 112.62 58.8304 111.184C60.2661 109.748 62.2127 108.941 64.2432 108.938H107.873C109.903 108.941 111.85 109.748 113.286 111.184C114.722 112.62 115.529 114.567 115.531 116.597V146.305C115.529 148.335 114.722 150.282 113.286 151.718C111.85 153.154 109.903 153.961 107.873 153.964Z" fill="#E6E6E6"/>
<path d="M166.588 154.196H122.958C120.927 154.193 118.981 153.386 117.545 151.95C116.109 150.514 115.302 148.567 115.299 146.537V116.829C115.302 114.799 116.109 112.852 117.545 111.416C118.981 109.98 120.927 109.173 122.958 109.17H166.588C168.618 109.173 170.565 109.98 172 111.416C173.436 112.852 174.244 114.799 174.246 116.829V146.537C174.244 148.567 173.436 150.514 172 151.95C170.565 153.386 168.618 154.193 166.588 154.196Z" fill="#E6E6E6"/>
<path d="M225.302 154.428H181.673C179.642 154.425 177.696 153.618 176.26 152.182C174.824 150.746 174.016 148.799 174.014 146.769V117.061C174.016 115.031 174.824 113.084 176.26 111.648C177.696 110.212 179.642 109.405 181.673 109.402H225.302C227.333 109.405 229.28 110.212 230.715 111.648C232.151 113.084 232.959 115.031 232.961 117.061V146.769C232.959 148.799 232.151 150.746 230.715 152.182C229.28 153.618 227.333 154.425 225.302 154.428Z" fill="#E6E6E6"/>
<path d="M242.012 152.339H49.8547V192.49H242.012V152.339Z" fill="#E6E6E6"/>
<path d="M56.8168 192.723H48.4622C44.2393 192.723 40.8037 188.822 40.8037 184.026V142.127H56.8168V192.723Z" fill="#E6E6E6"/>
<path d="M241.083 192.723H232.729V135.629H248.742V182.909C248.742 188.32 245.306 192.723 241.083 192.723Z" fill="#E6E6E6"/>
<path d="M115.764 160.694H56.8169V148.161C76.4659 136.89 96.1148 136.89 115.764 148.161V160.694Z" fill="#CCCCCC"/>
<path d="M174.478 160.926H115.531V148.393C135.18 137.122 154.829 137.122 174.478 148.393V160.926Z" fill="#CCCCCC"/>
<path d="M233.193 161.158H174.246V148.626C193.895 137.354 213.544 137.354 233.193 148.626V161.158Z" fill="#CCCCCC"/>
<path d="M45.445 152.803C53.0071 152.803 59.1374 146.672 59.1374 139.11C59.1374 131.547 53.0071 125.417 45.445 125.417C37.883 125.417 31.7527 131.547 31.7527 139.11C31.7527 146.672 37.883 152.803 45.445 152.803Z" fill="#CCCCCC"/>
<path d="M245.957 152.339C253.519 152.339 259.649 146.208 259.649 138.646C259.649 131.083 253.519 124.952 245.957 124.952C238.395 124.952 232.264 131.083 232.264 138.646C232.264 146.208 238.395 152.339 245.957 152.339Z" fill="#CCCCCC"/>
<path d="M205.623 111.82C205.655 112.04 205.669 112.262 205.666 112.484L222.079 123.797L226.455 121.725L230.446 127.922L223.054 132.343C222.457 132.701 221.76 132.854 221.068 132.782C220.376 132.709 219.726 132.414 219.216 131.941L202.594 116.513C201.77 116.745 200.894 116.72 200.083 116.442C199.273 116.164 198.566 115.646 198.057 114.957C197.548 114.268 197.261 113.44 197.234 112.583C197.207 111.727 197.442 110.883 197.906 110.163C198.371 109.443 199.044 108.881 199.835 108.553C200.627 108.225 201.499 108.146 202.337 108.325C203.175 108.505 203.938 108.936 204.525 109.56C205.112 110.184 205.495 110.972 205.623 111.82Z" fill="#FFB8B8"/>
<path d="M222.395 122.824C222.467 122.574 222.592 122.343 222.762 122.146C222.932 121.949 223.142 121.791 223.378 121.683L231.631 117.901C232.745 117.176 234.102 116.922 235.403 117.195C236.705 117.468 237.845 118.246 238.573 119.359C239.302 120.471 239.56 121.827 239.29 123.129C239.021 124.432 238.246 125.574 237.136 126.306L230.313 132.339C230.118 132.511 229.889 132.639 229.64 132.715C229.391 132.79 229.129 132.811 228.872 132.776C228.614 132.741 228.367 132.651 228.148 132.512C227.928 132.373 227.741 132.188 227.599 131.97L222.616 124.314C222.474 124.096 222.381 123.85 222.343 123.593C222.305 123.336 222.322 123.073 222.395 122.824Z" fill="#FF758E"/>
<path d="M205.416 112.557L205.334 112.563L205.109 109.45C205.037 108.455 204.393 107.69 203.671 107.742L198.885 108.089C198.163 108.141 196.835 109.048 196.907 110.043L196.965 110.845L198.142 127.123C198.214 128.118 199.66 128.824 200.382 128.772L205.167 128.426C205.889 128.373 206.416 127.524 206.344 126.529L205.494 114.779L205.577 114.773L205.416 112.557Z" fill="#3F3D56"/>
<path d="M204.831 109.482L206.065 126.537C206.119 127.28 205.725 127.914 205.186 127.953L200.377 128.301C199.838 128.34 199.358 127.769 199.304 127.026L198.07 109.972C198.016 109.228 198.41 108.594 198.949 108.555L199.532 108.513C199.492 108.665 199.501 108.825 199.557 108.972C199.614 109.118 199.715 109.243 199.847 109.328C199.903 109.355 199.964 109.367 200.025 109.363L202.767 109.164C203.023 109.146 203.21 108.844 203.184 108.491C203.179 108.409 203.161 108.329 203.133 108.253L203.757 108.207C204.297 108.168 204.777 108.739 204.831 109.482Z" fill="white"/>
<path d="M137.374 148.863L135.788 144.197L153.028 135.859L155.369 142.745L137.374 148.863Z" fill="#FFB8B8"/>
<path d="M133.256 151.59L128.142 136.546L128.332 136.481C129.101 136.22 129.914 136.112 130.724 136.165C131.535 136.218 132.327 136.43 133.055 136.789C133.784 137.147 134.435 137.646 134.97 138.257C135.506 138.867 135.916 139.577 136.178 140.346L139.301 149.535L133.256 151.59Z" fill="#2F2E41"/>
<path d="M205.799 152.192C202.102 152.4 198.415 151.628 195.111 149.955L174.838 136.162L151.166 144.928C150.538 145.142 149.852 145.109 149.246 144.837C148.641 144.564 148.162 144.072 147.905 143.46L146.745 140.669C146.481 140.042 146.473 139.335 146.724 138.702C146.975 138.069 147.464 137.559 148.087 137.283L170.703 127.126C173.418 125.911 176.464 125.648 179.347 126.379L210.743 134.38L219.042 144.236L218.95 144.363C214.876 149.984 210.044 151.885 205.799 152.192Z" fill="#2F2E41"/>
<path d="M231.441 111.007C236.893 111.007 241.312 106.587 241.312 101.135C241.312 95.6822 236.893 91.2621 231.441 91.2621C225.988 91.2621 221.569 95.6822 221.569 101.135C221.569 106.587 225.988 111.007 231.441 111.007Z" fill="#FFB8B8"/>
<path d="M221.307 148.63L205.419 136.806L216.254 129.104C215.944 128.107 214.569 122.404 222.089 118.516C224.469 117.286 226.184 116.227 227.186 115.369C228.607 114.142 230.428 113.478 232.305 113.501C233.489 113.519 234.651 113.813 235.702 114.359C236.752 114.905 237.66 115.688 238.356 116.646C239.051 117.604 239.514 118.71 239.708 119.878C239.901 121.045 239.821 122.242 239.472 123.373C237.904 128.47 235.407 135.224 232.412 138.454C229.025 142.103 225.351 145.476 221.427 148.54L221.307 148.63Z" fill="#FF758E"/>
<path d="M139.893 152.997L138.307 148.331L155.547 139.993L157.888 146.879L139.893 152.997Z" fill="#FFB8B8"/>
<path d="M135.775 155.725L130.661 140.68L130.851 140.616C131.62 140.354 132.433 140.247 133.244 140.3C134.054 140.352 134.846 140.564 135.575 140.923C136.303 141.282 136.954 141.781 137.49 142.391C138.025 143.002 138.436 143.712 138.697 144.48L141.821 153.669L135.775 155.725Z" fill="#2F2E41"/>
<path d="M208.319 156.327C204.621 156.534 200.934 155.763 197.63 154.089L177.357 140.296L153.685 149.063C153.057 149.276 152.371 149.244 151.766 148.971C151.161 148.699 150.681 148.207 150.425 147.595L149.264 144.804C149 144.176 148.992 143.469 149.243 142.836C149.494 142.203 149.984 141.693 150.607 141.417L173.222 131.261C175.937 130.046 178.983 129.782 181.867 130.513L213.263 138.514L221.562 148.37L221.469 148.497C217.395 154.118 212.563 156.02 208.319 156.327Z" fill="#2F2E41"/>
<path d="M203.762 123.663C203.885 123.848 203.993 124.043 204.086 124.245L223.761 127.441L226.829 123.694L233.088 127.586L228.301 134.747C227.915 135.325 227.351 135.762 226.694 135.993C226.038 136.224 225.324 136.235 224.66 136.026L203.034 129.2C202.388 129.763 201.586 130.116 200.735 130.212C199.883 130.308 199.023 130.143 198.268 129.737C197.513 129.332 196.899 128.707 196.508 127.945C196.117 127.182 195.968 126.319 196.079 125.469C196.191 124.62 196.559 123.824 197.133 123.189C197.708 122.553 198.463 122.108 199.297 121.912C200.131 121.716 201.005 121.778 201.802 122.091C202.6 122.404 203.283 122.952 203.762 123.663Z" fill="#FFB8B8"/>
<path d="M223.63 126.426C223.588 126.169 223.603 125.907 223.672 125.656C223.741 125.405 223.863 125.173 224.03 124.974L229.869 118.022C230.566 116.89 231.683 116.079 232.976 115.769C234.269 115.458 235.633 115.673 236.767 116.367C237.902 117.06 238.716 118.175 239.03 119.468C239.344 120.76 239.132 122.124 238.442 123.261L234.859 131.634C234.757 131.873 234.605 132.087 234.412 132.262C234.22 132.437 233.992 132.568 233.744 132.646C233.496 132.725 233.235 132.75 232.977 132.718C232.719 132.686 232.471 132.599 232.249 132.463L224.468 127.677C224.246 127.541 224.057 127.359 223.912 127.143C223.768 126.927 223.671 126.682 223.63 126.426Z" fill="#FF758E"/>
<path d="M228.801 112.008C231.67 108.317 233.261 103.793 233.334 99.119C231.983 100.123 230.455 100.861 228.83 101.295C227.105 101.754 225.208 101.847 223.584 101.107C221.297 100.065 219.945 97.4085 220.205 94.9093C220.464 92.4101 222.191 90.1775 224.44 89.0567C226.742 87.9802 229.367 87.8213 231.782 88.6122C233.06 87.5242 234.624 86.8274 236.287 86.6054C237.95 86.3834 239.642 86.6456 241.161 87.3605C244.655 89.0757 246.588 93.0475 246.923 96.9258C247.258 100.804 246.261 104.66 245.274 108.426L245.162 108.851C244.855 110.023 243.961 112.272 243.961 112.272C243.961 112.272 238.769 111.248 236.707 110.591C233.717 111.671 228.801 112.008 228.801 112.008Z" fill="#2F2E41"/>
<path d="M204.055 112.954L199.825 113.26C199.719 113.267 199.614 113.233 199.533 113.163C199.453 113.093 199.403 112.994 199.395 112.888C199.388 112.782 199.422 112.677 199.492 112.596C199.562 112.515 199.661 112.466 199.767 112.458L203.997 112.152C204.05 112.148 204.103 112.154 204.153 112.171C204.203 112.188 204.25 112.214 204.29 112.248C204.33 112.283 204.362 112.325 204.386 112.372C204.41 112.42 204.424 112.471 204.428 112.524C204.432 112.576 204.425 112.629 204.408 112.68C204.392 112.73 204.365 112.776 204.331 112.816C204.296 112.856 204.254 112.889 204.207 112.912C204.159 112.936 204.108 112.95 204.055 112.954Z" fill="#3F3D56"/>
<path d="M204.2 114.958L199.97 115.264C199.918 115.268 199.865 115.262 199.815 115.245C199.764 115.229 199.718 115.202 199.678 115.168C199.638 115.133 199.605 115.091 199.581 115.044C199.558 114.997 199.543 114.945 199.54 114.893C199.536 114.84 199.542 114.787 199.559 114.737C199.576 114.687 199.602 114.64 199.637 114.6C199.671 114.56 199.714 114.528 199.761 114.504C199.808 114.48 199.86 114.466 199.912 114.463L204.142 114.156C204.249 114.149 204.354 114.184 204.434 114.253C204.515 114.323 204.564 114.422 204.572 114.528C204.58 114.635 204.545 114.74 204.475 114.82C204.405 114.901 204.307 114.951 204.2 114.958Z" fill="#3F3D56"/>
<path d="M204.345 116.963L200.115 117.269C200.009 117.276 199.904 117.241 199.824 117.172C199.744 117.102 199.694 117.003 199.686 116.897C199.679 116.791 199.713 116.686 199.783 116.605C199.853 116.525 199.951 116.475 200.057 116.467L204.287 116.161C204.394 116.153 204.499 116.188 204.579 116.258C204.66 116.328 204.709 116.427 204.717 116.533C204.725 116.639 204.69 116.744 204.62 116.825C204.55 116.905 204.452 116.955 204.345 116.963Z" fill="#3F3D56"/>
<path d="M156.352 62.2843H115.757C114.798 62.2832 113.878 61.9017 113.2 61.2235C112.522 60.5453 112.141 59.6257 112.139 58.6666V23.696C112.141 22.7369 112.522 21.8174 113.2 21.1392C113.878 20.461 114.798 20.0795 115.757 20.0784H156.352C157.311 20.0795 158.231 20.461 158.909 21.1392C159.587 21.8174 159.968 22.7369 159.97 23.696V58.6666C159.968 59.6257 159.587 60.5452 158.909 61.2234C158.231 61.9017 157.311 62.2832 156.352 62.2843ZM115.757 20.8823C115.011 20.8831 114.296 21.1798 113.768 21.7073C113.241 22.2348 112.944 22.95 112.943 23.696V58.6666C112.944 59.4126 113.241 60.1278 113.768 60.6553C114.296 61.1828 115.011 61.4795 115.757 61.4803H156.352C157.098 61.4795 157.813 61.1828 158.341 60.6553C158.868 60.1278 159.165 59.4126 159.166 58.6666V23.696C159.165 22.95 158.868 22.2348 158.341 21.7073C157.813 21.1798 157.098 20.8831 156.352 20.8823H115.757Z" fill="#F2F2F2"/>
<path d="M150.417 56.8578H121.692C120.787 56.8568 119.918 56.4965 119.278 55.856C118.637 55.2154 118.277 54.347 118.276 53.4412V28.9215C118.277 28.0157 118.637 27.1473 119.278 26.5067C119.918 25.8662 120.787 25.5059 121.692 25.5049H150.417C151.323 25.5059 152.191 25.8662 152.832 26.5067C153.472 27.1473 153.832 28.0157 153.833 28.9215V53.4412C153.832 54.347 153.472 55.2154 152.832 55.856C152.191 56.4965 151.323 56.8568 150.417 56.8578Z" fill="#E6E6E6"/>
<path d="M140.481 20.6869L136.257 13.6273L132.056 20.6857L131.365 20.2749L136.255 12.0588L141.171 20.2737L140.481 20.6869Z" fill="#F2F2F2"/>
<path d="M140.878 38.3675C140.877 37.7592 140.81 37.1527 140.679 36.5587H134.648C134.221 36.5587 133.812 36.7281 133.511 37.0297C133.209 37.3312 133.04 37.7401 133.04 38.1666V46.7783C135.168 46.6272 137.159 45.6756 138.614 44.115C140.068 42.5544 140.877 40.5008 140.878 38.3675Z" fill="#FF758E"/>
<path d="M132.437 47.2107C130.769 47.2113 129.135 46.7402 127.724 45.8517C126.312 44.9633 125.181 43.6938 124.46 42.1897C123.739 40.6856 123.458 39.0083 123.65 37.3515C123.842 35.6946 124.498 34.1257 125.543 32.8259C126.588 31.5261 127.98 30.5484 129.557 30.0057C131.134 29.4629 132.832 29.3773 134.456 29.7586C136.079 30.14 137.562 30.9728 138.733 32.1608C139.903 33.3489 140.714 34.8438 141.071 36.473L141.178 36.9607H134.648C134.328 36.961 134.022 37.0882 133.796 37.3143C133.57 37.5404 133.442 37.8469 133.442 38.1666V47.1528L132.999 47.1842C132.813 47.1977 132.627 47.2107 132.437 47.2107ZM132.437 30.3283C130.305 30.3283 128.261 31.1753 126.753 32.683C125.245 34.1906 124.399 36.2354 124.399 38.3676C124.399 40.4997 125.245 42.5445 126.753 44.0521C128.261 45.5598 130.305 46.4068 132.437 46.4068C132.505 46.4068 132.572 46.4048 132.638 46.4017V38.1666C132.639 37.6337 132.851 37.1229 133.227 36.7461C133.604 36.3693 134.115 36.1574 134.648 36.1568H140.163C139.676 34.4819 138.661 33.0093 137.268 31.9589C135.876 30.9085 134.181 30.3365 132.437 30.3283Z" fill="white"/>
<path d="M144.294 49.8234H134.648C134.115 49.8228 133.604 49.6108 133.227 49.2341C132.851 48.8573 132.639 48.3464 132.638 47.8136V46.4038L133.012 46.3773C134.162 46.2978 135.282 45.971 136.295 45.4191C137.308 44.8671 138.19 44.1031 138.88 43.1791C139.571 42.2552 140.054 41.1931 140.297 40.0654C140.539 38.9377 140.536 37.7709 140.286 36.6447L140.179 36.1567H144.294C144.827 36.1574 145.338 36.3693 145.715 36.7461C146.091 37.1229 146.303 37.6337 146.304 38.1665V47.8136C146.303 48.3464 146.091 48.8573 145.715 49.2341C145.338 49.6108 144.827 49.8228 144.294 49.8234ZM133.442 47.1447V47.8136C133.442 48.1333 133.57 48.4398 133.796 48.6659C134.022 48.892 134.328 49.0191 134.648 49.0195H144.294C144.614 49.0191 144.92 48.892 145.146 48.6659C145.373 48.4398 145.5 48.1333 145.5 47.8136V38.1665C145.5 37.8468 145.373 37.5403 145.146 37.3143C144.92 37.0882 144.614 36.961 144.294 36.9607H141.164C141.241 37.4257 141.279 37.8962 141.28 38.3675C141.272 40.5359 140.471 42.6263 139.027 44.2437C137.582 45.861 135.596 46.8931 133.442 47.1447Z" fill="white"/>
</svg>
