<svg width="209" height="155" viewBox="0 0 209 155" fill="none" xmlns="http://www.w3.org/2000/svg">
<g clip-path="url(#clip0_9_309)">
<path d="M155.767 90.1876C156.404 90.2274 156.756 89.4374 156.274 88.9769L156.226 88.7867C156.232 88.7714 156.239 88.7562 156.245 88.741C156.89 87.2077 159.074 87.2182 159.713 88.7539C160.28 90.1168 161.002 91.4821 161.18 92.9232C161.26 93.5593 161.224 94.2074 161.082 94.8316C162.411 91.9351 163.111 88.7723 163.111 85.5915C163.111 84.7924 163.067 83.9932 162.977 83.196C162.903 82.5439 162.802 81.8959 162.67 81.2538C161.959 77.7827 160.419 74.4767 158.197 71.7154C157.129 71.1329 156.239 70.2225 155.701 69.1311C155.507 68.7374 155.356 68.314 155.284 67.8826C155.406 67.8985 155.742 66.0517 155.651 65.9384C155.82 65.6819 156.123 65.5544 156.308 65.3042C157.228 64.0597 158.496 64.277 159.158 65.9682C160.571 66.68 160.585 67.8605 159.717 68.9959C159.166 69.7182 159.09 70.6956 158.606 71.4689C158.655 71.5325 158.707 71.5942 158.757 71.6578C159.671 72.8267 160.461 74.0832 161.127 75.4032C160.938 73.9362 161.216 72.1688 161.69 71.0296C162.229 69.7315 163.24 68.6383 164.13 67.5162C165.2 66.1683 167.392 66.7565 167.58 68.4652C167.582 68.4817 167.584 68.4982 167.586 68.5148C167.454 68.5892 167.324 68.6683 167.197 68.7518C166.476 69.228 166.725 70.3442 167.58 70.4759L167.6 70.4789C167.552 70.954 167.47 71.4252 167.351 71.8884C168.493 76.2947 166.027 77.8995 162.507 77.9716C162.429 78.0114 162.354 78.0511 162.276 78.0889C162.632 79.0908 162.917 80.1186 163.129 81.1603C163.318 82.0807 163.449 83.0111 163.523 83.9455C163.615 85.1243 163.607 86.3092 163.507 87.4861L163.513 87.4443C163.766 86.1482 164.471 84.9375 165.496 84.0985C167.021 82.8481 169.177 82.3876 170.823 81.3825C171.615 80.8987 172.63 81.5239 172.492 82.4404L172.485 82.4843C172.24 82.5837 172.001 82.699 171.77 82.8282C171.638 82.9027 171.508 82.9817 171.382 83.0652C170.66 83.5414 170.909 84.6577 171.765 84.7894L171.784 84.7923C171.798 84.7943 171.81 84.7963 171.824 84.7983C171.403 85.7943 170.818 86.7187 170.084 87.5159C169.37 91.3624 166.303 91.7273 163.023 90.6072H163.021C162.662 92.1658 162.138 93.6886 161.465 95.1398H155.906C155.886 95.0782 155.868 95.0145 155.85 94.9529C156.364 94.9847 156.882 94.9549 157.388 94.8615C156.976 94.3565 156.563 93.8476 156.151 93.3426C156.141 93.3327 156.133 93.3228 156.125 93.3128C155.916 93.0544 155.705 92.7979 155.495 92.5395L155.495 92.5392C155.482 91.7458 155.578 90.955 155.767 90.1876Z" fill="#D1F2C2"/>
<path d="M23.9104 82.0433C25.5958 82.1486 26.5273 80.0594 25.2522 78.8417L25.1253 78.3385C25.142 78.2982 25.1588 78.2579 25.1757 78.2177C26.8801 74.1627 32.6567 74.1906 34.3466 78.2517C35.8466 81.8561 37.7562 85.4667 38.2265 89.2778C38.4373 90.9601 38.3424 92.674 37.9683 94.3248C41.4829 86.6648 43.3324 78.3005 43.3324 69.8887C43.3324 67.7752 43.2164 65.6618 42.9793 63.5536C42.7844 61.8292 42.5156 60.1153 42.1678 58.4171C40.2868 49.2378 36.2136 40.4949 30.3384 33.1924C27.5141 31.652 25.1587 29.2441 23.736 26.3579C23.2249 25.3169 22.8245 24.1971 22.6348 23.0562C22.9562 23.0983 23.8467 18.2142 23.6043 17.9145C24.0522 17.2363 24.8539 16.8992 25.3432 16.2375C27.7762 12.9462 31.1283 13.5209 32.8782 17.9934C36.6165 19.8758 36.6526 22.9978 34.3589 26.0003C32.8996 27.9106 32.699 30.4954 31.4186 32.5404C31.5504 32.7087 31.6874 32.8717 31.8191 33.0399C34.2348 36.1313 36.3241 39.4541 38.0854 42.9448C37.5876 39.0653 38.3225 34.3914 39.5754 31.3786C41.0016 27.9458 43.6748 25.0547 46.0289 22.0871C48.8565 18.5225 54.6548 20.0781 55.153 24.5968C55.1578 24.6406 55.1625 24.6843 55.1671 24.728C54.8175 24.9248 54.4749 25.1339 54.1403 25.3547C52.2317 26.6141 52.8913 29.5661 55.1528 29.9144L55.204 29.9223C55.0775 31.1788 54.8615 32.4248 54.5453 33.6498C57.5653 45.3024 51.0454 49.5466 41.7358 49.7372C41.5303 49.8424 41.3301 49.9475 41.1245 50.0475C42.0678 52.6971 42.8213 55.4152 43.3798 58.17C43.8804 60.6042 44.2282 63.0646 44.4231 65.5356C44.6655 68.6531 44.6444 71.7865 44.3809 74.8989L44.3967 74.7885C45.0659 71.3608 46.9312 68.159 49.6397 65.9404C53.6744 62.6335 59.3747 61.4157 63.7274 58.7577C65.8227 57.4781 68.5076 59.1316 68.1419 61.5553L68.1241 61.6714C67.476 61.9342 66.8437 62.2392 66.2325 62.5809C65.8829 62.7778 65.5403 62.9868 65.2057 63.2076C63.2971 64.4671 63.9567 67.4191 66.2182 67.7673L66.2694 67.7752C66.3063 67.7804 66.3379 67.7857 66.3747 67.791C65.2629 70.4249 63.7138 72.8696 61.7747 74.9778C59.8864 85.1501 51.7761 86.1152 43.1005 83.1529H43.0952C42.1468 87.2747 40.761 91.3019 38.9799 95.1397H24.2788C24.2261 94.9767 24.1787 94.8085 24.1312 94.6455C25.4907 94.7296 26.8607 94.6507 28.1991 94.4037C27.1084 93.0683 26.0176 91.7224 24.9269 90.3871C24.9006 90.3608 24.8794 90.3345 24.8584 90.3082C24.3051 89.6248 23.7466 88.9466 23.1933 88.2631L23.193 88.2623C23.1584 86.1642 23.4105 84.0731 23.9099 82.0437L23.9104 82.0433Z" fill="#D1F2C2"/>
<path d="M202.539 8.07288H77.6605V8.68846H160.896C166.81 8.68846 172.471 9.75342 177.703 11.7048H177.706C178.425 11.9726 179.131 12.2557 179.831 12.5574C181.448 13.2468 183.015 14.0255 184.533 14.8843C185.477 15.4168 186.402 15.9831 187.303 16.5771C189.228 17.8422 191.054 19.2426 192.769 20.7662L192.772 20.7692C192.85 20.8339 192.924 20.8985 192.998 20.9693C202.774 29.7383 208.922 42.4562 208.922 56.6053V91.2718C208.922 91.3456 208.922 91.4195 208.919 91.4934C208.832 94.0357 207.253 96.1564 205.155 95.6239C201.58 94.7129 197.949 94.045 194.259 94.045H22.4999C15.3553 94.045 8.09354 94.7252 1.45798 97.3722C1.23588 97.4614 1.0292 97.406 0.825586 97.3414C0.729955 97.3106 0.634324 97.2798 0.538696 97.2429V97.8923C1.23588 98.1263 1.97932 98.2555 2.75672 98.2555H202.539C206.318 98.2555 209.409 95.2484 209.533 91.5088C209.539 91.4287 209.539 91.3518 209.539 91.2718V15.0566C209.539 11.2062 206.398 8.07288 202.539 8.07288Z" fill="black"/>
<path d="M80.5608 147.767L75.8769 148.47L70.9271 130.779L77.8402 129.741L80.5608 147.767Z" fill="#FFB6B6"/>
<path d="M81.4618 152.617L67.0581 154.781L67.0307 154.6C66.5644 151.51 68.6963 148.629 71.7924 148.163L71.7928 148.163L74.1231 145.776L79.3327 147.03L80.59 146.841L81.4618 152.617Z" fill="#2F2E41"/>
<path d="M119.499 143.996L115.253 146.09L105.137 130.744L111.405 127.654L119.499 143.996Z" fill="#FFB6B6"/>
<path d="M121.838 148.342L108.78 154.781L108.698 154.616C107.311 151.816 108.462 148.423 111.269 147.039L111.269 147.039L112.76 144.057L118.105 143.668L119.245 143.106L121.838 148.342Z" fill="#2F2E41"/>
<path d="M129.517 95.5132L129.595 66.5659L136.505 64.7408L134.498 95.3927C135.067 95.8447 135.517 96.4596 135.763 97.2002C136.436 99.2288 135.334 101.418 133.301 102.09C131.268 102.762 129.073 101.662 128.4 99.6337C127.896 98.1157 128.387 96.5081 129.517 95.5132Z" fill="#FFB6B6"/>
<path d="M85.4187 87.8868L86.688 58.9671L93.6671 57.4268L90.3997 87.9705C90.95 88.4454 91.3744 89.0782 91.5896 89.8283C92.179 91.8828 90.9876 94.0251 88.9284 94.6132C86.8692 95.2013 84.7221 94.0126 84.1326 91.9581C83.6916 90.4207 84.248 88.8345 85.4187 87.8868Z" fill="#FFB6B6"/>
<path d="M104.696 98.2575L86.7016 104.149L76.1609 107.599C80.5842 115.331 80.1941 139.122 79.8502 141.097H70.6435C70.5546 139.322 64.0344 116.107 62.1047 105.593C59.5937 91.9092 71.3764 88.4402 71.3764 88.4402L88.3956 81.6795L99.0657 78.9968L107.497 76.8768C107.88 77.5976 108.212 78.3011 108.5 78.9891C108.501 78.991 108.501 78.9949 108.503 78.9968C113.607 91.1903 104.696 98.2575 104.696 98.2575Z" fill="#2F2E41"/>
<path d="M128.165 87.2955C127.906 91.2559 126.253 93.9367 126.253 93.9367L102.612 112.415C107.358 116.443 118.803 136.308 119.813 138.943L109.513 140.482C108.383 138.394 90.4779 118.324 88.7105 115.304C86.4196 111.39 86.097 107.549 86.7016 104.149C87.9514 97.1128 93.1802 91.9613 93.1802 91.9613L106.149 80.0857L108.482 78.9968L108.5 78.9891L121.59 72.8817C123.85 74.9284 125.391 76.9963 126.415 78.9968C127.545 81.2054 128.041 83.3311 128.165 85.2507C128.211 85.9637 128.208 86.646 128.165 87.2955Z" fill="#2F2E41"/>
<path d="M116.576 25.8052L103.634 25.4198L99.7707 30.0451C96.0558 30.4766 92.7897 31.9136 90.1128 34.6705C90.1128 34.6705 92.2392 40.3476 91.6581 52.401C91.3551 58.6849 92.7866 70.2586 92.6239 74.7568C92.4789 78.7633 93.0838 80.5504 93.2033 80.5385C93.7144 80.4876 96.1007 79.1895 100.93 80.7312C105.759 82.273 126.893 78.9769 126.893 78.9769L125.461 69.746L127.247 63.9489L127.972 33.1287C123.916 31.3942 121.791 30.816 117.928 30.816L116.576 25.8052Z" fill="#FF758E"/>
<path d="M123.972 35.5124L127.779 33.1288C127.779 33.1288 134.733 31.9724 134.153 45.2703C134.153 45.2703 137.963 54.8501 137.732 63.2041C137.717 63.7219 137.198 64.4888 137.64 64.7408C138.579 65.2762 138.133 65.7836 137.437 66.2771L128.704 68.2206C127.926 67.4889 127.529 66.805 128.157 66.2489C127.45 65.9935 127.271 65.6402 127.851 65.1462C127.527 65.0856 127.379 64.8909 127.639 64.3833L123.336 55.2919L123.972 35.5124Z" fill="#FF758E"/>
<path d="M94.4932 36.3943L90.378 34.5914C90.378 34.5914 83.3296 34.4615 85.8509 47.5321C85.8509 47.5321 83.7297 56.5273 84.7378 64.4703C84.7602 64.6462 84.9232 64.861 84.8094 64.9962C84.4257 65.4523 84.3795 65.9025 85.0409 66.3428C85.2703 66.4956 85.3503 66.9084 85.2158 67.1452C84.7825 67.9077 85.0885 68.4044 85.6798 68.7921L95.9696 72.3512L98.6954 50.8664L94.4932 36.3943Z" fill="#FF758E"/>
<path d="M108.802 24.4238C114.847 24.4238 119.747 19.5346 119.747 13.5034C119.747 7.47215 114.847 2.58289 108.802 2.58289C102.757 2.58289 97.8569 7.47215 97.8569 13.5034C97.8569 19.5346 102.757 24.4238 108.802 24.4238Z" fill="#FFB6B6"/>
<path d="M119.072 20.7958C118.94 21.0435 118.553 21.3778 118.032 21.7484C117.439 22.1695 116.673 22.6358 115.913 23.0813C115.913 23.0813 113.16 22.784 114.244 21.3291C114.365 21.1678 114.479 20.9883 114.582 20.7996C114.96 20.1023 115.144 19.2845 114.665 18.7026C114.31 18.2729 113.638 18.1456 113.151 18.4169C112.664 18.6853 112.843 18.6836 112.656 18.6321C112.199 18.1074 111.46 18.3511 111.46 18.3511C111.46 18.3511 112.033 17.0528 112.486 16.5006C112.943 15.9493 113.412 15.3407 113.458 14.6287C113.506 13.9459 113.158 13.3043 112.823 12.7109C112.46 12.0682 112.099 11.4294 111.735 10.7867C111.613 10.5709 111.491 10.3522 111.356 10.1429C110.056 8.0867 105.83 10.1779 103.394 10.089C100.959 9.99714 100.138 7.03841 98.6889 8.99299C98.3384 7.44712 98.0754 6.2446 97.7278 4.91981C97.4105 3.70553 98.7741 2.7077 99.813 3.41803C99.8212 3.42346 99.8263 3.42806 99.8344 3.43348C99.9802 3.25328 100.088 3.04976 100.158 2.82967C100.207 2.67701 100.283 2.53846 100.377 2.42047C100.725 2.66626 101.074 2.90907 101.419 3.15405C101.355 2.73734 101.216 2.33527 101.018 1.96464C101.322 1.8599 101.664 1.86137 101.985 1.99452L102.564 2.23012C102.738 2.07375 102.865 1.87891 102.951 1.66291C103.18 1.06506 103.77 0.700599 104.409 0.761446C105.441 0.860062 104.079 0.634137 105.108 0.396658C106.684 0.0318894 108.437 -0.315939 109.839 0.494197C111.937 1.7033 113.523 2.59144 117.225 2.89923C119.076 4.13039 119.873 7.09254 120.441 8.58016C120.893 9.75809 121.23 12.0922 120.75 13.2627C119.539 16.2214 120.57 17.9702 119.072 20.7958Z" fill="#2F2E41"/>
<path d="M144.836 149.665C145.474 149.705 145.826 148.915 145.344 148.454L145.296 148.264C145.302 148.249 145.308 148.234 145.315 148.218C145.959 146.685 148.143 146.696 148.783 148.231C149.35 149.594 150.072 150.96 150.25 152.401C150.329 153.037 150.293 153.685 150.152 154.309C151.481 151.413 152.18 148.25 152.18 145.069C152.18 144.27 152.136 143.471 152.047 142.673C151.973 142.021 151.871 141.373 151.74 140.731C151.029 137.26 149.488 133.954 147.267 131.193C146.199 130.61 145.308 129.7 144.77 128.608C144.577 128.215 144.426 127.791 144.354 127.36C144.475 127.376 144.812 125.529 144.72 125.416C144.89 125.159 145.193 125.032 145.378 124.782C146.298 123.537 147.566 123.754 148.227 125.446C149.641 126.157 149.655 127.338 148.787 128.473C148.235 129.196 148.16 130.173 147.675 130.946C147.725 131.01 147.777 131.072 147.827 131.135C148.74 132.304 149.53 133.561 150.196 134.881C150.008 133.414 150.286 131.646 150.76 130.507C151.299 129.209 152.31 128.116 153.2 126.994C154.269 125.646 156.462 126.234 156.65 127.943C156.652 127.959 156.654 127.976 156.655 127.992C156.523 128.067 156.394 128.146 156.267 128.229C155.545 128.705 155.795 129.822 156.65 129.953L156.669 129.956C156.622 130.431 156.54 130.903 156.42 131.366C157.562 135.772 155.097 137.377 151.577 137.449C151.499 137.489 151.423 137.529 151.345 137.566C151.702 138.568 151.987 139.596 152.198 140.638C152.388 141.558 152.519 142.489 152.593 143.423C152.684 144.602 152.676 145.787 152.577 146.963L152.583 146.922C152.836 145.626 153.541 144.415 154.565 143.576C156.091 142.326 158.246 141.865 159.892 140.86C160.685 140.376 161.7 141.001 161.562 141.918L161.555 141.962C161.31 142.061 161.071 142.176 160.84 142.306C160.707 142.38 160.578 142.459 160.451 142.543C159.73 143.019 159.979 144.135 160.834 144.267L160.854 144.27C160.868 144.272 160.879 144.274 160.893 144.276C160.473 145.272 159.887 146.196 159.154 146.993C158.44 150.84 155.373 151.205 152.093 150.085H152.091C151.732 151.643 151.208 153.166 150.535 154.617H144.976C144.956 154.556 144.938 154.492 144.92 154.43C145.434 154.462 145.952 154.432 146.458 154.339C146.045 153.834 145.633 153.325 145.221 152.82C145.211 152.81 145.203 152.8 145.195 152.79C144.986 152.532 144.774 152.275 144.565 152.017L144.565 152.017C144.552 151.223 144.647 150.432 144.836 149.665Z" fill="#D1F2C2"/>
<path d="M42.5569 154.634C42.5569 154.837 42.7204 155 42.924 155H161.164C161.368 155 161.531 154.837 161.531 154.634C161.531 154.431 161.368 154.267 161.164 154.267H42.924C42.7204 154.267 42.5569 154.431 42.5569 154.634Z" fill="black"/>
</g>
<defs>
<clipPath id="clip0_9_309">
<rect width="209" height="155" fill="white"/>
</clipPath>
</defs>
</svg>
