<svg width="704" height="414" viewBox="0 0 704 414" fill="none" xmlns="http://www.w3.org/2000/svg">
<g clip-path="url(#clip0_8_184)">
<path d="M114.318 47C108.666 47.0064 103.247 49.2548 99.2508 53.252C95.2544 57.2492 93.0064 62.6688 93 68.3217V300.124C93.0064 305.777 95.2544 311.196 99.2508 315.194C103.247 319.191 108.666 321.439 114.318 321.446H594.691C600.343 321.439 605.762 319.191 609.758 315.194C613.755 311.196 616.003 305.777 616.009 300.124V68.3217C616.003 62.6688 613.755 57.2492 609.758 53.252C605.762 49.2548 600.343 47.0064 594.691 47H114.318Z" fill="white"/>
<path d="M594.351 322.441H113.977C108.105 322.434 102.475 320.098 98.3225 315.945C94.1702 311.792 91.8345 306.161 91.8279 300.288V68.4853C91.8346 62.6119 94.1702 56.981 98.3225 52.8279C102.475 48.6748 108.105 46.3386 113.977 46.332H594.351C600.223 46.3386 605.853 48.6748 610.005 52.8279C614.157 56.981 616.493 62.6119 616.5 68.4853V300.288C616.493 306.161 614.157 311.792 610.005 315.945C605.853 320.098 600.223 322.434 594.351 322.441ZM113.977 47.9953C108.546 48.0014 103.338 50.1621 99.4978 54.0034C95.6573 57.8447 93.497 63.0529 93.4909 68.4853V300.288C93.497 305.72 95.6573 310.928 99.4978 314.77C103.338 318.611 108.546 320.772 113.977 320.778H594.351C599.782 320.772 604.989 318.611 608.83 314.77C612.67 310.928 614.831 305.72 614.837 300.288V68.4853C614.831 63.0529 612.67 57.8447 608.83 54.0034C604.989 50.1621 599.782 48.0014 594.351 47.9953H113.977Z" fill="#3F3D56"/>
<path d="M252.585 309.457C252.622 308.526 249.771 307.657 246.217 307.516C242.663 307.375 239.752 308.015 239.715 308.946C239.678 309.877 242.529 310.746 246.083 310.887C249.637 311.028 252.548 310.387 252.585 309.457Z" fill="#E6E6E6"/>
<path d="M293.58 307.285C293.616 306.354 290.765 305.485 287.211 305.344C283.657 305.203 280.746 305.844 280.71 306.774C280.673 307.705 283.524 308.574 287.078 308.715C290.632 308.856 293.543 308.216 293.58 307.285Z" fill="#3F3D56"/>
<path d="M236.834 296.805C236.871 295.874 234.02 295.005 230.466 294.864C226.912 294.723 224.001 295.363 223.964 296.294C223.927 297.225 226.778 298.094 230.332 298.235C233.886 298.376 236.797 297.736 236.834 296.805Z" fill="#FF6584"/>
<path d="M217.033 292.183C217.128 291.352 215.93 290.533 214.358 290.354C212.786 290.174 211.435 290.703 211.34 291.534C211.246 292.365 212.443 293.184 214.015 293.363C215.588 293.542 216.939 293.014 217.033 292.183Z" fill="#E6E6E6"/>
<path d="M207.573 282.491C207.667 281.66 206.47 280.842 204.897 280.662C203.325 280.483 201.974 281.012 201.879 281.842C201.785 282.673 202.982 283.492 204.555 283.672C206.127 283.851 207.478 283.322 207.573 282.491Z" fill="#3F3D56"/>
<path d="M261.039 298.993C261.133 298.162 259.936 297.343 258.363 297.164C256.791 296.985 255.44 297.513 255.345 298.344C255.251 299.175 256.448 299.994 258.021 300.173C259.593 300.352 260.944 299.824 261.039 298.993Z" fill="#E6E6E6"/>
<path d="M242.276 303.117C242.371 302.286 241.173 301.467 239.601 301.288C238.029 301.108 236.678 301.637 236.583 302.468C236.489 303.299 237.686 304.118 239.258 304.297C240.831 304.476 242.182 303.948 242.276 303.117Z" fill="#FF6584"/>
<path d="M272.623 309.759C272.718 308.929 271.52 308.11 269.948 307.93C268.376 307.751 267.025 308.28 266.93 309.111C266.836 309.942 268.033 310.76 269.605 310.94C271.178 311.119 272.529 310.59 272.623 309.759Z" fill="#3F3D56"/>
<path d="M4.37948e-06 275.371C-0.000383154 275.501 0.0249522 275.63 0.0745439 275.75C0.124136 275.87 0.197013 275.98 0.288977 276.072C0.38094 276.163 0.490174 276.236 0.610403 276.286C0.730633 276.336 0.859481 276.361 0.989534 276.36H703.011C703.273 276.36 703.525 276.256 703.71 276.071C703.896 275.885 704 275.633 704 275.371C704 275.108 703.896 274.857 703.71 274.671C703.525 274.485 703.273 274.381 703.011 274.381H0.989483C0.859435 274.381 0.7306 274.406 0.610378 274.456C0.490156 274.505 0.380922 274.578 0.288964 274.67C0.197006 274.762 0.124134 274.871 0.0745439 274.992C0.0249537 275.112 -0.000378708 275.241 4.37948e-06 275.371Z" fill="#CCCCCC"/>
<path d="M239.959 257.886C239.481 257.908 239.008 257.782 238.603 257.526C238.199 257.27 237.883 256.896 237.698 256.454C237.514 256.013 237.469 255.525 237.571 255.057C237.673 254.589 237.916 254.164 238.267 253.839L238.427 253.203C238.406 253.152 238.385 253.101 238.364 253.05C237.882 251.912 237.075 250.942 236.044 250.262C235.013 249.581 233.803 249.22 232.568 249.225C231.332 249.23 230.126 249.599 229.1 250.287C228.074 250.976 227.274 251.952 226.8 253.093C224.909 257.649 222.501 262.213 221.908 267.03C221.647 269.159 221.757 271.318 222.234 273.409C217.792 263.718 215.485 253.184 215.471 242.523C215.47 239.847 215.618 237.174 215.916 234.515C216.162 232.336 216.503 230.172 216.939 228.023C219.32 216.365 224.431 205.438 231.854 196.14C235.447 194.179 238.352 191.164 240.179 187.501C240.841 186.184 241.309 184.779 241.568 183.328C241.162 183.381 240.04 177.208 240.345 176.829C239.78 175.972 238.77 175.545 238.153 174.709C235.085 170.549 230.858 171.275 228.652 176.929C223.938 179.308 223.893 183.254 226.785 187.049C228.625 189.464 228.878 192.731 230.492 195.316C230.326 195.528 230.153 195.734 229.987 195.947C226.951 199.852 224.305 204.045 222.086 208.466C222.626 203.513 221.982 198.503 220.208 193.847C218.409 189.508 215.039 185.854 212.071 182.103C208.505 177.597 201.194 179.564 200.566 185.275C200.56 185.33 200.554 185.386 200.549 185.441C200.989 185.69 201.421 185.954 201.843 186.233C202.374 186.587 202.785 187.094 203.022 187.686C203.26 188.278 203.314 188.928 203.176 189.551C203.038 190.174 202.715 190.741 202.249 191.177C201.784 191.614 201.197 191.899 200.567 191.996L200.502 192.006C200.659 193.596 200.937 195.171 201.332 196.718C197.525 211.446 205.745 216.811 217.484 217.052C217.743 217.185 217.995 217.318 218.254 217.444C216.026 223.762 214.627 230.342 214.095 237.02C213.794 240.96 213.812 244.918 214.149 248.855L214.129 248.716C213.278 244.338 210.943 240.388 207.518 237.532C202.431 233.352 195.243 231.813 189.755 228.453C189.172 228.079 188.494 227.879 187.8 227.877C187.107 227.876 186.428 228.072 185.843 228.444C185.258 228.816 184.791 229.347 184.498 229.975C184.205 230.603 184.098 231.302 184.189 231.99C184.196 232.038 184.204 232.087 184.211 232.136C185.029 232.47 185.826 232.854 186.596 233.286C187.037 233.535 187.469 233.799 187.891 234.078C188.422 234.433 188.833 234.939 189.07 235.531C189.308 236.123 189.361 236.773 189.223 237.396C189.085 238.019 188.763 238.586 188.297 239.022C187.831 239.459 187.245 239.744 186.614 239.841L186.55 239.851C186.503 239.858 186.463 239.865 186.417 239.871C187.815 243.21 189.777 246.282 192.217 248.955C194.598 261.813 204.824 263.032 215.763 259.288H215.77C216.97 264.505 218.709 269.582 220.958 274.439H239.495C239.561 274.233 239.621 274.021 239.681 273.815C237.965 273.922 236.243 273.82 234.552 273.509C235.927 271.821 237.302 270.12 238.678 268.432C238.708 268.401 238.737 268.367 238.764 268.332C239.462 267.469 240.166 266.611 240.863 265.747L240.864 265.746C240.901 263.098 240.597 260.456 239.959 257.886Z" fill="#D1F2C2"/>
<path d="M147.425 247.599C146.649 247.635 145.882 247.431 145.226 247.016C144.57 246.601 144.058 245.994 143.759 245.278C143.459 244.562 143.387 243.771 143.552 243.012C143.717 242.254 144.112 241.564 144.681 241.038C144.777 240.658 144.845 240.386 144.941 240.006C144.907 239.924 144.872 239.841 144.838 239.759C144.057 237.914 142.748 236.341 141.076 235.237C139.404 234.133 137.443 233.549 135.44 233.556C133.437 233.564 131.48 234.163 129.817 235.279C128.153 236.395 126.856 237.978 126.089 239.828C123.022 247.215 119.118 254.615 118.157 262.426C117.733 265.878 117.912 269.378 118.684 272.769C111.482 257.055 107.742 239.976 107.718 222.689C107.716 218.351 107.957 214.016 108.44 209.705C108.838 206.171 109.391 202.662 110.099 199.179C113.959 180.276 122.247 162.559 134.283 147.482C140.108 144.303 144.819 139.414 147.781 133.475C148.854 131.34 149.612 129.061 150.032 126.709C149.375 126.795 147.555 116.785 148.05 116.171C147.135 114.781 145.496 114.09 144.495 112.734C139.521 105.989 132.668 107.167 129.091 116.333C121.448 120.191 121.374 126.589 126.064 132.742C129.047 136.657 129.457 141.955 132.075 146.146C131.805 146.491 131.525 146.825 131.256 147.17C126.333 153.501 122.042 160.3 118.445 167.469C119.32 159.438 118.276 151.314 115.399 143.765C112.483 136.73 107.018 130.804 102.205 124.722C96.4243 117.417 84.5702 120.605 83.5517 129.866C83.5419 129.956 83.5323 130.045 83.5229 130.135C84.2377 130.538 84.9375 130.966 85.6221 131.419C86.4822 131.994 87.1486 132.815 87.5341 133.775C87.9196 134.735 88.0061 135.79 87.7824 136.8C87.5586 137.81 87.035 138.729 86.2802 139.436C85.5254 140.144 84.5745 140.606 83.5522 140.764L83.4475 140.78C83.7021 143.357 84.1523 145.911 84.794 148.419C78.6199 172.301 91.9493 180.999 110.982 181.39C111.402 181.605 111.812 181.821 112.232 182.026C108.618 192.269 106.351 202.939 105.488 213.767C105 220.156 105.028 226.573 105.574 232.957L105.542 232.731C104.163 225.632 100.377 219.227 94.8232 214.597C86.5746 207.82 74.9209 205.324 66.0221 199.877C61.7384 197.254 56.2493 200.643 56.9969 205.61C57.0088 205.69 57.0209 205.769 57.0333 205.848C58.3598 206.389 59.6514 207.011 60.9005 207.712C61.6154 208.116 62.3151 208.544 62.9998 208.996C63.8599 209.571 64.5263 210.392 64.9118 211.353C65.2973 212.313 65.3838 213.367 65.1601 214.377C64.9363 215.387 64.4128 216.306 63.6579 217.013C62.9031 217.721 61.9522 218.184 60.9298 218.341L60.8251 218.357C60.7497 218.368 60.685 218.379 60.6097 218.39C62.8763 223.803 66.0575 228.785 70.0141 233.119C73.8746 253.966 90.4555 255.944 108.192 249.873H108.203C110.149 258.331 112.968 266.564 116.616 274.439H146.671C146.779 274.105 146.876 273.76 146.973 273.426C144.191 273.601 141.398 273.435 138.657 272.931C140.887 270.194 143.116 267.436 145.346 264.699C145.396 264.648 145.443 264.594 145.486 264.537C146.617 263.137 147.759 261.747 148.891 260.346L148.891 260.344C148.951 256.051 148.459 251.767 147.425 247.6L147.425 247.599Z" fill="#D1F2C2"/>
<path d="M558.754 15.0035C556.736 -0.465086 521.063 0.521667 517.695 15.0751C515.908 13.9573 511.363 14.731 509.668 16.0158C507.973 17.3005 506.886 19.1892 505.822 21.0226C504.37 23.5692 502.865 26.2068 502.544 29.1266C502.208 32.0408 503.353 35.3421 505.995 36.6397C508.09 37.6738 512.701 36.9755 515.005 36.5125C516.612 36.1929 517.962 35.9129 519.107 35.6384C519.491 33.8271 519.226 31.9382 518.357 30.3031C519.283 30.4869 520.156 30.8733 520.914 31.4346C521.673 31.9958 522.298 32.7181 522.744 33.5495C522.925 33.8977 529.461 83.104 529.461 83.104C531.247 83.3194 533.05 83.3644 534.845 83.2384C535.959 77.1825 536.162 70.9941 535.447 64.8783C537.339 68.3739 538.837 72.0696 539.911 75.897C540.526 78.0377 541.032 80.2084 541.426 82.4007C556.98 79.4917 578.005 69.4718 581.842 52.4582C581.821 52.4033 581.799 52.3484 581.778 52.2936C581.568 51.7736 581.546 51.197 581.715 50.6623C581.883 50.1277 582.233 49.6683 582.703 49.3629C583.173 49.0575 583.735 48.9251 584.291 48.9883C584.848 49.0516 585.366 49.3065 585.756 49.7095C586.225 50.1922 586.643 50.6048 586.996 50.9245C585.633 40.0592 577.393 30.2821 558.754 15.0035Z" fill="#2F2E41"/>
<path d="M331.647 393.844L322.927 389.284L336.754 352.722L349.625 359.452L331.647 393.844Z" fill="#A0616A"/>
<path d="M296.461 393.403C295.921 394.438 295.814 395.644 296.162 396.757C296.511 397.871 297.287 398.8 298.32 399.343L315.659 408.408L321.872 403.789L319.811 410.575L326.351 414L336.036 390.994L333.828 389.671L324.833 384.252L321.929 382.51L318.666 388.751L299.818 391.075C299.112 391.163 298.438 391.42 297.853 391.826C297.268 392.231 296.79 392.772 296.461 393.403Z" fill="#2F2E41"/>
<path d="M322.713 259.245L316.37 251.72L343.018 223.124L352.379 234.23L322.713 259.245Z" fill="#A0616A"/>
<path d="M290.317 245.502C289.426 246.255 288.87 247.331 288.771 248.493C288.671 249.656 289.037 250.81 289.788 251.703L302.4 266.664L309.899 264.744L305.421 270.243L310.176 275.891L327.855 258.271L326.313 256.21L320.041 247.786L318.013 245.073L312.629 249.613L294.306 244.621C293.62 244.434 292.898 244.416 292.203 244.57C291.508 244.724 290.861 245.043 290.317 245.502Z" fill="#2F2E41"/>
<path d="M602.443 231.048C602.443 231.048 629.372 288.698 517.855 273.163C517.855 273.163 458.442 207.306 460.158 199.383C460.158 199.383 434.871 173.682 436.108 173.215C437.346 172.747 438.109 171.73 436.064 171.823C434.02 171.915 434.02 168.871 434.02 168.871C434.02 168.871 388.32 218.44 349.839 243.037L336.536 228.068C336.536 228.068 341.724 211.834 344.218 211.834C346.713 211.834 347.573 212.434 347.974 209.223C348.376 206.013 346.389 203.256 349.046 202.971C351.702 202.686 406.753 138.333 406.753 138.333C406.753 138.333 412.693 117.137 430.84 121.24C448.987 125.342 543.282 202.021 543.282 202.021L602.443 231.048Z" fill="#2F2E41"/>
<path d="M557.032 275.031L409.707 273.808L345.682 375.27L327.589 365.69L331.6 363.997C331.6 363.997 330.385 349.895 331.873 346.325C333.36 342.755 337.785 343.829 337.785 343.829L375.113 257.729C377.688 250.087 382.745 243.525 389.48 239.091C396.215 234.656 404.24 232.604 412.276 233.26C443.163 228.754 493.302 232.354 545.391 236.775L557.032 275.031Z" fill="#2F2E41"/>
<path d="M471.735 102.354C474.539 102.784 477.065 104.291 478.775 106.556C480.485 108.82 481.245 111.662 480.891 114.477C480.811 115.049 480.683 115.612 480.509 116.162L510.781 139.129L504.534 158.593L466.466 122.647C464.241 121.75 462.376 120.141 461.162 118.072C459.947 116.004 459.452 113.591 459.752 111.211C459.936 109.858 460.385 108.555 461.073 107.375C461.76 106.196 462.673 105.164 463.76 104.337C464.846 103.511 466.085 102.907 467.405 102.559C468.725 102.212 470.1 102.128 471.453 102.312C471.547 102.325 471.641 102.339 471.735 102.354Z" fill="#A0616A"/>
<path d="M605.283 103.788L594.399 133.927L551.835 194.089C551.835 194.089 551.486 193.939 550.854 193.673C547.195 192.093 533.908 186.288 521.411 179.693C509.678 173.497 498.628 166.603 496.915 161.862C496.732 161.363 496.566 160.881 496.416 160.415V160.407C495.618 157.993 495.118 155.49 494.928 152.955C494.786 151.001 494.911 149.953 494.645 149.828C494.437 149.737 494.005 150.186 493.048 151.2C492.982 151.267 492.924 151.333 492.857 151.392C489.398 154.86 485.149 154.411 486.189 152.764C487.253 151.076 486.696 151.109 485.133 149.346C483.969 148.032 480.185 142.892 478.323 140.356C477.682 139.482 477.275 138.917 477.275 138.917L477.915 137.911L479.686 135.133L488.109 121.926L488.575 121.203C488.575 121.203 505.887 125.203 508.19 129.004C510.501 132.804 504.706 132.679 510.501 132.804C516.297 132.929 522.209 125.045 517.977 132.887C513.744 140.722 514.858 143.458 520.097 142.218C522.225 141.711 525.593 143.316 528.836 145.395V145.404C530.864 146.722 532.82 148.146 534.698 149.67C536.702 151.283 538.057 152.506 538.057 152.506L570.934 85.7907L574.576 78.4057C575.686 76.1585 577.233 74.1552 579.126 72.513C581.019 70.8708 583.221 69.6227 585.602 68.8417L586.741 70.8293C593.834 81.2768 600.036 92.3017 605.283 103.788Z" fill="#FF758E"/>
<path d="M607.104 199.445C617.182 201.79 606.461 275.162 594.449 275.391C507.142 277.055 533.725 228.062 529.044 223.371C524.362 218.672 520.138 222.041 524.362 214.73C527.439 209.408 532.004 210.198 532.07 207.212C532.104 206.098 531.513 204.468 529.983 201.79C524.362 191.943 524.362 189.007 524.362 189.007C522.961 186.051 521.968 182.917 521.411 179.693C520.499 174.899 520.386 169.986 521.078 165.156C522.134 158.069 524.786 151.314 528.836 145.404V145.395C529.26 144.763 529.701 144.123 530.166 143.491C531.222 142.052 537.076 142.327 537.076 142.327L549.548 89.9325L542.331 69.0413L576.514 53.0237L585.602 68.8417L586.741 70.8294C593.833 81.2769 600.036 92.3018 605.283 103.788C610.33 115.023 614.48 127.498 614.629 138.351C615.028 166.653 610.148 175.069 610.148 175.069C610.148 175.069 621.996 183.926 616.068 189.34C610.148 194.762 597.027 197.099 607.104 199.445Z" fill="#FF758E"/>
<path d="M452.247 95.4611L446.67 99.6986C445.568 100.541 444.846 101.786 444.66 103.161C444.474 104.535 444.841 105.928 445.679 107.033L459.112 124.692L467.044 135.11C467.885 136.21 469.127 136.932 470.5 137.118C471.872 137.303 473.262 136.937 474.364 136.1L479.948 131.857C481.045 131.012 481.764 129.768 481.949 128.395C482.133 127.023 481.768 125.633 480.932 124.528L480.109 123.44L463.837 102.056L459.568 96.4508C459.153 95.9048 458.634 95.4461 458.041 95.1009C457.448 94.7556 456.793 94.5306 456.113 94.4387C455.433 94.3468 454.742 94.3898 454.078 94.5652C453.415 94.7406 452.793 95.0451 452.247 95.4611Z" fill="#3F3D56"/>
<path d="M455.164 95.1408L449.156 99.3329C448.626 99.6795 448.176 100.134 447.834 100.668C447.493 101.201 447.269 101.801 447.176 102.427C447.084 103.054 447.125 103.693 447.297 104.302C447.469 104.911 447.769 105.477 448.176 105.962L456.04 115.44L460.231 120.488L463.027 123.857L469.28 131.393C470.164 132.404 471.39 133.054 472.722 133.22C474.055 133.386 475.402 133.055 476.507 132.292L481.009 129.151L482.507 128.106C483.254 127.608 483.837 126.9 484.183 126.072C484.529 125.244 484.622 124.331 484.451 123.45C484.301 122.718 483.97 122.035 483.489 121.463L465.011 99.192L462.391 96.0399C461.508 95.0275 460.282 94.3761 458.949 94.2103C457.616 94.0444 456.269 94.3757 455.164 95.1408Z" fill="#FF758E"/>
<path d="M459.003 118.548C461.808 118.978 464.333 120.486 466.043 122.75C467.754 125.014 468.513 127.856 468.16 130.672C468.079 131.243 467.951 131.806 467.777 132.356L498.049 155.323L491.802 174.787L453.734 138.841C451.509 137.944 449.644 136.335 448.43 134.267C447.215 132.198 446.72 129.785 447.02 127.405C447.204 126.052 447.653 124.749 448.341 123.57C449.028 122.39 449.942 121.358 451.028 120.532C452.115 119.705 453.353 119.101 454.673 118.754C455.993 118.406 457.369 118.322 458.721 118.506C458.815 118.519 458.909 118.533 459.003 118.548Z" fill="#A0616A"/>
<path d="M582.467 84.4876C585.113 85.0264 587.612 86.1289 589.794 87.72C591.976 89.3112 593.79 91.3537 595.113 93.7086C596.435 96.0635 597.235 98.6757 597.458 101.367C597.68 104.059 597.321 106.767 596.404 109.308L581.671 150.119L539.1 210.286C539.1 210.286 488.046 188.717 484.181 178.056C480.316 167.395 483.806 163.716 480.316 167.395C476.825 171.074 472.399 170.638 473.459 168.954C474.518 167.271 473.961 167.307 472.401 165.543C470.841 163.779 464.544 155.114 464.544 155.114L475.843 137.398C475.843 137.398 493.155 141.396 495.462 145.199C497.768 149.002 491.971 148.877 497.768 149.002C503.565 149.126 509.479 141.239 505.245 149.079C501.01 156.92 502.127 159.653 507.366 158.411C512.604 157.168 525.321 168.702 525.321 168.702L561.848 94.6016C563.685 90.8745 566.704 87.8608 570.435 86.031C574.165 84.2013 578.396 83.6586 582.467 84.4876Z" fill="#FF758E"/>
<path d="M560.683 59.921C571.267 49.3358 571.267 32.1736 560.683 21.5884C550.1 11.0031 532.941 11.0031 522.358 21.5884C511.775 32.1736 511.775 49.3358 522.358 59.921C532.941 70.5063 550.1 70.5063 560.683 59.921Z" fill="#A0616A"/>
<path d="M573.21 11.2259C571.192 -4.24263 535.519 -3.25588 532.151 11.2975C530.364 10.1798 525.819 10.9535 524.124 12.2382C522.429 13.523 521.342 15.4117 520.279 17.2451C518.827 19.7916 508.665 28.407 507.142 25.8951C503.716 20.2423 496.996 32.5947 502.153 40.8649C503.39 42.8479 527.289 39.6645 529.593 39.2016C528.447 39.4761 531.2 38.882 529.593 39.2016C529.962 37.4074 533.696 28.1376 532.813 26.5256C533.739 26.7094 534.612 27.0958 535.371 27.657C536.129 28.2183 536.754 28.9405 537.201 29.7719C537.381 30.1201 543.917 79.3264 543.917 79.3264C545.703 79.5418 547.506 79.5868 549.301 79.4608C550.415 73.4049 550.618 67.2166 549.903 61.1008C551.795 64.5964 553.293 68.2921 554.367 72.1194C554.982 74.2601 555.488 76.4309 555.882 78.6232C571.436 75.7141 592.462 65.6943 596.298 48.6806C575.325 41.6965 591.849 26.5045 573.21 11.2259Z" fill="#2F2E41"/>
<path d="M335.999 88.9571C336.347 86.5678 333.845 84.2258 330.411 83.726C326.977 83.2263 323.911 84.7581 323.564 87.1474C323.216 89.5368 325.718 91.8789 329.152 92.3786C332.586 92.8783 335.652 91.3465 335.999 88.9571Z" fill="#E6E6E6"/>
<path d="M376.885 84.9668C377.233 82.5775 374.731 80.2354 371.297 79.7357C367.863 79.236 364.797 80.7678 364.45 83.1571C364.102 85.5465 366.604 87.8885 370.038 88.3883C373.472 88.888 376.538 87.3562 376.885 84.9668Z" fill="#3F3D56"/>
<path d="M324.804 55.8506C325.151 53.4612 322.649 51.1192 319.215 50.6194C315.781 50.1197 312.716 51.6515 312.368 54.0409C312.021 56.4302 314.523 58.7723 317.957 59.272C321.391 59.7717 324.456 58.2399 324.804 55.8506Z" fill="#FF6584"/>
<path d="M307.038 42.2896C307.054 40.0961 305.831 38.3085 304.305 38.297C302.78 38.2855 301.53 40.0543 301.513 42.2478C301.496 44.4413 302.72 46.2289 304.245 46.2404C305.771 46.252 307.021 44.4831 307.038 42.2896Z" fill="#E6E6E6"/>
<path d="M301.013 17.0309C301.03 14.8374 299.806 13.0499 298.281 13.0383C296.755 13.0268 295.505 14.7957 295.488 16.9892C295.472 19.1827 296.695 20.9702 298.221 20.9818C299.746 20.9933 300.996 19.2245 301.013 17.0309Z" fill="#3F3D56"/>
<path d="M347.864 61.4844C347.88 59.2909 346.657 57.5034 345.131 57.4918C343.606 57.4803 342.355 59.2491 342.339 61.4427C342.322 63.6362 343.546 65.4237 345.071 65.4353C346.597 65.4468 347.847 63.678 347.864 61.4844Z" fill="#E6E6E6"/>
<path d="M328.106 71.3512C328.122 69.1577 326.899 67.3701 325.373 67.3586C323.848 67.347 322.598 69.1159 322.581 71.3094C322.564 73.5029 323.788 75.2904 325.313 75.302C326.839 75.3135 328.089 73.5447 328.106 71.3512Z" fill="#FF6584"/>
<path d="M355.609 89.5875C355.626 87.394 354.403 85.6064 352.877 85.5949C351.351 85.5833 350.101 87.3522 350.085 89.5457C350.068 91.7392 351.291 93.5268 352.817 93.5383C354.343 93.5498 355.593 91.781 355.609 89.5875Z" fill="#3F3D56"/>
<path d="M449.996 112.912C450.369 112.644 450.131 111.671 449.463 110.736C448.796 109.802 447.952 109.262 447.578 109.529C447.205 109.796 447.443 110.77 448.111 111.704C448.778 112.638 449.622 113.179 449.996 112.912Z" fill="#3F3D56"/>
<path d="M447.501 109.585C447.875 109.318 447.637 108.344 446.969 107.41C446.301 106.476 445.457 105.935 445.084 106.202C444.71 106.469 444.948 107.443 445.616 108.377C446.284 109.311 447.128 109.852 447.501 109.585Z" fill="#3F3D56"/>
</g>
<defs>
<clipPath id="clip0_8_184">
<rect width="704" height="414" fill="white"/>
</clipPath>
</defs>
</svg>
