<svg width="309" height="175" viewBox="0 0 309 175" fill="none" xmlns="http://www.w3.org/2000/svg">
<g clip-path="url(#clip0_9_335)">
<path d="M263.647 111.105C263.926 111.036 264.187 110.906 264.41 110.726C264.634 110.545 264.816 110.317 264.942 110.058C265.069 109.799 265.137 109.515 265.143 109.227C265.148 108.939 265.09 108.653 264.974 108.39L270.077 103.603L266.547 102.752L262.242 107.428C261.813 107.654 261.482 108.029 261.312 108.484C261.141 108.938 261.143 109.439 261.316 109.892C261.489 110.346 261.822 110.719 262.252 110.943C262.681 111.166 263.178 111.224 263.647 111.105Z" fill="#FFB6B6"/>
<path d="M266.283 107.249L263.903 103.883L272.843 94.6101L274.919 79.9931C275.021 79.2705 275.281 78.5795 275.68 77.9691C276.079 77.3587 276.607 76.8438 277.226 76.461C277.846 76.0783 278.542 75.837 279.265 75.7543C279.988 75.6716 280.72 75.7496 281.41 75.9827C282.655 76.4051 283.682 77.3055 284.266 78.4865C284.85 79.6675 284.943 81.0325 284.524 82.2821L279.228 98.0411L266.283 107.249Z" fill="#E4E4E4"/>
<path d="M283.069 169.531H280.427L279.17 159.31L283.069 159.31L283.069 169.531Z" fill="#FFB6B6"/>
<path d="M284.49 174.562H282.615L282.281 172.787L281.423 174.562H276.451C276.213 174.562 275.981 174.486 275.789 174.344C275.597 174.203 275.455 174.003 275.384 173.775C275.313 173.547 275.317 173.302 275.394 173.076C275.472 172.85 275.62 172.655 275.816 172.519L279.787 169.768V167.974L283.963 168.224L284.49 174.562Z" fill="#2F2E41"/>
<path d="M299.369 166.835L297.048 168.101L291.073 159.726L294.498 157.857L299.369 166.835Z" fill="#FFB6B6"/>
<path d="M303.015 170.573L301.368 171.471L300.228 170.072L300.322 172.043L295.954 174.426C295.745 174.54 295.504 174.585 295.268 174.552C295.032 174.52 294.813 174.412 294.641 174.246C294.47 174.08 294.357 173.863 294.317 173.627C294.278 173.391 294.315 173.149 294.422 172.936L296.599 168.616L295.744 167.04L299.532 165.257L303.015 170.573Z" fill="#2F2E41"/>
<path d="M284.182 165.891H278.722V146.391L275.341 133.678C272.915 124.587 272.27 115.11 273.443 105.772L273.447 105.734L273.477 105.709C273.564 105.636 282.215 98.4613 287.688 103.95C291.376 107.649 287.91 120.951 287.716 121.682V144.614L284.182 165.891Z" fill="#2F2E41"/>
<path d="M284.168 73.946L284.14 73.917L277.177 74.0232L273.46 82.7729C270.02 88.1328 273.31 91.1813 273.541 91.6642L272.883 98.2409L272.459 102.484L271.779 109.315L287.735 104.087L285.959 96.9565L288.011 86.6713C288.466 84.3969 288.354 82.0449 287.683 79.8246C287.013 77.6044 285.805 75.5849 284.168 73.946Z" fill="#E4E4E4"/>
<path d="M280.924 146.492L292.141 162.316L296.444 159.247L287.076 139.94L280.924 146.492Z" fill="#2F2E41"/>
<path d="M280.008 72.2455C283.558 72.2455 286.435 69.3595 286.435 65.7994C286.435 62.2393 283.558 59.3533 280.008 59.3533C276.458 59.3533 273.581 62.2393 273.581 65.7994C273.581 69.3595 276.458 72.2455 280.008 72.2455Z" fill="#FFB6B6"/>
<path opacity="0.1" d="M286.207 90.7369L279.196 98.8492L272.459 102.484L272.883 98.2408L276.85 96.0067L286.207 90.7369Z" fill="black"/>
<path d="M275.506 77.8796L274.903 75.2293C274.705 74.3423 274.686 73.4246 274.847 72.5301C275.008 71.6356 275.346 70.7825 275.84 70.021C276.295 69.303 276.548 68.4755 276.574 67.6254C276.599 66.7753 276.396 65.934 275.985 65.1899C275.682 64.5883 275.222 64.0808 274.653 63.7216C274.085 63.3624 273.429 63.165 272.758 63.1507H272.597V62.9897C272.597 60.6783 274.393 59.0469 276.063 58.9534C276.124 58.4724 276.464 58.0412 277.055 57.6989C278.469 56.8814 281.203 56.7041 283.269 57.7937C283.307 57.4414 283.439 57.106 283.652 56.8231C283.865 56.5402 284.15 56.3203 284.477 56.1868C284.817 56.0684 285.182 56.0473 285.533 56.1259C285.563 55.5464 285.802 54.9976 286.205 54.5811C286.775 54.0269 287.69 53.8162 288.715 54.002C290.122 54.2583 291.51 55.1577 292.622 56.5349C293.607 57.7559 294.292 59.195 294.954 60.5865C295.604 61.9551 296.277 63.3703 297.253 64.5685C298.321 65.8812 299.645 66.7317 300.981 66.9634C302.539 67.2337 304.137 66.5905 304.869 65.3997L305.014 65.1633L305.146 65.4072C305.968 66.9219 305.632 69.0032 304.347 70.3559C303.194 71.5692 301.385 72.1873 299.51 72.0078C297.922 71.8564 296.32 71.1796 294.749 69.9964C293.189 68.8213 292.224 67.5223 291.881 66.1355C291.785 65.7064 291.716 65.2716 291.675 64.8338C291.569 63.9168 291.469 63.0506 290.906 62.413C290.401 61.8398 289.618 61.5914 288.925 61.4037L288.788 61.3671C288.763 61.6254 288.683 61.8751 288.552 62.0989C288.421 62.3227 288.243 62.5151 288.03 62.6628C287.902 62.7399 287.762 62.794 287.616 62.8228C288.42 66.0695 288.09 68.5552 286.632 70.2124C284.172 73.0102 279.445 72.4347 279.244 72.4091L279.111 72.3918L279.105 72.2574C279.087 71.8967 279.043 71.5378 278.973 71.1835C278.296 72.8196 276.018 77.1462 275.714 77.5825L275.506 77.8796Z" fill="#2F2E41"/>
<path d="M48.5264 88.288C48.3385 88.5359 48.0986 88.7395 47.8238 88.8844C47.5489 89.0293 47.2457 89.112 46.9355 89.1267C46.6253 89.1413 46.3157 89.0876 46.0284 88.9693C45.7412 88.851 45.4833 88.6709 45.2729 88.4418L38.3508 91.4611L39.0251 87.5857L45.4951 85.3127C45.9022 84.9837 46.4156 84.8161 46.9378 84.8414C47.46 84.8667 47.9548 85.0832 48.3285 85.45C48.7021 85.8167 48.9286 86.3082 48.9651 86.8313C49.0016 87.3543 48.8455 87.8726 48.5264 88.288Z" fill="#A0616A"/>
<path d="M43.9072 89.498L27.8294 96.6805L27.7949 96.6681L9.4704 90.1192C8.10547 89.4037 7.06486 88.1921 6.56164 86.7323C6.05841 85.2725 6.13065 83.675 6.76355 82.2668C7.11436 81.4888 7.62549 80.7941 8.2633 80.2285C8.9011 79.6629 9.65112 79.2392 10.464 78.9853C11.2768 78.7313 12.1341 78.6529 12.9794 78.7552C13.8246 78.8575 14.6387 79.1382 15.368 79.5787L29.0048 87.8174L42.2283 86.0986L43.9072 89.498Z" fill="#3F3D56"/>
<path d="M50.643 42.2077C44.565 28.7245 44.7891 11.6338 54.2219 0.256104C57.3778 16.0332 65.9963 30.1823 78.5525 40.2C83.4089 44.0458 89.2097 47.8161 90.5364 53.8776C91.3619 57.6493 90.1918 61.6386 88.1689 64.924C86.1458 68.2095 83.326 70.9121 80.5382 73.5756L80.2255 74.4871C68.095 66.064 56.721 55.691 50.643 42.2077Z" fill="#D1F2C2"/>
<path d="M54.4845 0.420661C52.3137 12.3424 53.9264 25.037 59.2029 35.9596C60.3437 38.321 61.7058 40.6169 63.5295 42.5162C65.3213 44.3538 67.5711 45.6766 70.045 46.3472C72.3392 47.019 74.7635 47.4397 76.855 48.6591C79.0594 49.9445 80.4275 52.1011 80.9605 54.5743C81.6125 57.6003 81.1416 60.6809 80.5766 63.6774C79.9494 67.0044 79.2453 70.4501 80.1543 73.7946C80.2644 74.1999 79.631 74.3475 79.521 73.9429C77.9396 68.124 81.0143 62.3851 80.5845 56.5348C80.384 53.805 79.3619 51.1192 77.0281 49.5375C74.9872 48.1545 72.4877 47.7185 70.1589 47.0584C67.7136 46.3653 65.5176 45.3066 63.6489 43.5505C61.7374 41.7541 60.2829 39.5068 59.0869 37.1849C56.4141 31.8996 54.5865 26.2257 53.671 20.3709C52.5893 13.6948 52.6543 6.88232 53.8631 0.228178C53.9381 -0.183639 54.559 0.0115289 54.4845 0.420661Z" fill="white"/>
<path d="M57.3011 32.5C55.332 33.1329 53.2027 33.0432 51.2935 32.2469C49.3842 31.4507 47.8193 29.9997 46.8783 28.1532C46.6892 27.7789 47.2603 27.4665 47.4496 27.8413C48.3227 29.5625 49.7805 30.9139 51.5599 31.6517C53.3393 32.3895 55.3231 32.4651 57.1532 31.8649C57.551 31.7349 57.6967 32.3708 57.3011 32.5Z" fill="white"/>
<path d="M68.8371 46.1603C70.8047 42.4084 71.29 38.0505 70.1962 33.9557C70.0875 33.5501 70.7209 33.4023 70.8294 33.8074C71.9597 38.0707 71.4455 42.6047 69.3894 46.5045C69.1932 46.876 68.6419 46.5298 68.8371 46.1603Z" fill="white"/>
<path d="M53.4253 13.9066C54.2381 13.821 55.0169 13.5342 55.6918 13.072C56.3668 12.6099 56.9167 11.9869 57.2922 11.2589C57.4837 10.885 58.0347 11.2317 57.8445 11.6031C57.4259 12.4055 56.8178 13.0928 56.0732 13.605C55.3286 14.1173 54.4703 14.4389 53.5732 14.5417C53.4894 14.5585 53.4025 14.5427 53.3299 14.4975C53.2574 14.4523 53.2047 14.3811 53.1826 14.2983C53.1635 14.2141 53.1782 14.1258 53.2237 14.0524C53.2691 13.9791 53.3416 13.9267 53.4253 13.9066Z" fill="white"/>
<path d="M104.176 0.388184C104.064 0.625052 103.951 0.861917 103.84 1.10363C102.339 4.29603 101.098 7.6055 100.131 10.9994C100.052 11.2606 99.9759 11.5265 99.9046 11.7894C97.6612 19.991 96.9556 28.539 97.8236 36.9989C98.172 40.365 98.7754 43.6996 99.6283 46.9739C100.807 51.4957 102.443 56.3045 102.073 60.8197C102.04 61.2912 101.978 61.7602 101.887 62.224L81.3586 74.7991C81.2976 74.8042 81.2393 74.8141 81.1781 74.8194L80.3813 75.359C80.3256 75.1933 80.2713 75.0201 80.2156 74.8543C80.1828 74.7583 80.1547 74.6594 80.1219 74.5634C80.1016 74.4985 80.0814 74.4334 80.0593 74.376C80.0524 74.3544 80.0458 74.3327 80.0418 74.3158C80.0197 74.2584 80.0053 74.2027 79.986 74.15C79.68 73.183 79.3803 72.2122 79.0867 71.2374C79.0839 71.2327 79.0839 71.2328 79.0856 71.2253C76.868 63.7928 75.2496 56.1094 74.8455 48.4239C74.8334 48.1927 74.8182 47.9569 74.8155 47.7199C74.6525 44.2546 74.7722 40.7818 75.1733 37.336C75.3991 35.45 75.7198 33.5766 76.1344 31.723C77.2148 26.9359 79.0393 22.3489 81.541 18.1303C86.5294 9.72142 94.1437 3.00611 103.463 0.567512C103.701 0.50527 103.935 0.445684 104.176 0.388184Z" fill="#D1F2C2"/>
<path d="M104.289 0.677814C95.3993 8.88588 89.0661 19.9955 86.7221 31.9027C86.2153 34.477 85.9246 37.1327 86.2406 39.7503C86.5681 42.2994 87.5703 44.7141 89.143 46.7434C90.5715 48.6651 92.2546 50.4648 93.1925 52.7013C94.181 55.0587 93.9786 57.6067 92.9195 59.9032C91.6235 62.7131 89.3982 64.8884 87.1483 66.9398C84.6502 69.2174 82.0194 71.5435 80.7374 74.7628C80.5821 75.1528 79.9877 74.8883 80.1428 74.4988C82.3733 68.8979 88.2735 66.1722 91.4424 61.2416C92.921 58.9408 93.7173 56.1793 92.8034 53.5072C92.0041 51.1706 90.2701 49.3132 88.807 47.38C87.2706 45.3501 86.1528 43.1787 85.715 40.6483C85.2672 38.0597 85.4549 35.3871 85.8939 32.811C86.9327 26.9771 88.8796 21.3432 91.6634 16.1158C94.8075 10.1321 98.949 4.73194 103.909 0.148905C104.216 -0.134628 104.595 0.396138 104.289 0.677814Z" fill="white"/>
<path d="M87.2803 27.992C85.3282 27.3083 83.6819 25.951 82.6355 24.1624C81.5891 22.3738 81.2106 20.2704 81.5678 18.2278C81.6415 17.8147 82.285 17.9102 82.2112 18.3238C81.8751 20.2252 82.2278 22.1845 83.2056 23.8481C84.1834 25.5116 85.7219 26.7698 87.5435 27.3956C87.9392 27.5321 87.6737 28.1276 87.2803 27.992Z" fill="white"/>
<path d="M88.2907 45.8647C92.1141 44.0571 95.1176 40.8707 96.7025 36.9408C96.8592 36.5513 97.4537 36.8157 97.2972 37.2047C95.6403 41.2912 92.5079 44.6008 88.5251 46.473C88.1453 46.6512 87.913 46.0419 88.2907 45.8647Z" fill="white"/>
<path d="M95.3477 10.8059C96.0481 11.2283 96.8421 11.4696 97.6585 11.5082C98.4748 11.5467 99.2879 11.3813 100.025 11.0268C100.402 10.8439 100.634 11.4534 100.259 11.6351C99.4432 12.023 98.545 12.2046 97.643 12.164C96.741 12.1234 95.8626 11.8619 95.0846 11.4023C95.0076 11.3652 94.9477 11.3 94.9169 11.2201C94.8861 11.1402 94.8868 11.0515 94.9188 10.9722C94.9541 10.8934 95.0189 10.8317 95.0992 10.8006C95.1795 10.7695 95.2688 10.7714 95.3477 10.8059Z" fill="white"/>
<path d="M182.887 49.2899C176.809 35.8066 177.033 18.716 186.466 7.33826C189.622 23.1154 198.24 37.2644 210.797 47.2821C215.653 51.1279 221.454 54.8982 222.78 60.9598C223.606 64.7314 222.436 68.7207 220.413 72.0061C218.39 75.2916 215.57 77.9943 212.782 80.6578L212.469 81.5693C200.339 73.1462 188.965 62.7732 182.887 49.2899Z" fill="#D1F2C2"/>
<path d="M186.729 7.50281C184.558 19.4246 186.17 32.1191 191.447 43.0417C192.588 45.4032 193.95 47.6991 195.774 49.5983C197.565 51.4359 199.815 52.7587 202.289 53.4294C204.583 54.1012 207.008 54.5219 209.099 55.7413C211.303 57.0266 212.672 59.1833 213.204 61.6565C213.857 64.6825 213.386 67.763 212.821 70.7595C212.193 74.0865 211.489 77.5323 212.398 80.8768C212.508 81.282 211.875 81.4297 211.765 81.0251C210.184 75.2062 213.258 69.4672 212.829 63.617C212.628 60.8871 211.606 58.2013 209.272 56.6197C207.231 55.2366 204.732 54.8006 202.403 54.1406C199.958 53.4475 197.762 52.3888 195.893 50.6327C193.981 48.8363 192.527 46.5889 191.331 44.2671C188.658 38.9818 186.83 33.3078 185.915 27.4531C184.833 20.777 184.898 13.9645 186.107 7.31033C186.182 6.89851 186.803 7.09368 186.729 7.50281Z" fill="white"/>
<path d="M189.545 39.5821C187.576 40.215 185.447 40.1254 183.537 39.3291C181.628 38.5328 180.063 37.0819 179.122 35.2353C178.933 34.861 179.504 34.5487 179.694 34.9235C180.567 36.6446 182.024 37.9961 183.804 38.7339C185.583 39.4717 187.567 39.5473 189.397 38.947C189.795 38.8171 189.941 39.4529 189.545 39.5821Z" fill="white"/>
<path d="M201.081 53.2424C203.049 49.4905 203.534 45.1327 202.44 41.0379C202.331 40.6323 202.965 40.4845 203.073 40.8896C204.204 45.1529 203.689 49.6868 201.633 53.5866C201.437 53.9582 200.886 53.612 201.081 53.2424Z" fill="white"/>
<path d="M185.669 20.9888C186.482 20.9031 187.261 20.6163 187.936 20.1542C188.611 19.6921 189.161 19.069 189.536 18.3411C189.728 17.9672 190.279 18.3138 190.088 18.6853C189.67 19.4876 189.062 20.1749 188.317 20.6872C187.573 21.1995 186.714 21.521 185.817 21.6239C185.733 21.6407 185.646 21.6249 185.574 21.5797C185.501 21.5344 185.449 21.4632 185.427 21.3805C185.407 21.2963 185.422 21.2079 185.468 21.1346C185.513 21.0612 185.585 21.0088 185.669 20.9888Z" fill="white"/>
<path d="M236.42 7.47034C236.307 7.70721 236.195 7.94407 236.084 8.18578C234.583 11.3782 233.342 14.6877 232.375 18.0815C232.296 18.3428 232.22 18.6087 232.149 18.8716C229.905 27.0732 229.199 35.6212 230.067 44.0811C230.416 47.4472 231.019 50.7818 231.872 54.056C233.05 58.5779 234.687 63.3867 234.317 67.9019C234.284 68.3734 234.222 68.8424 234.131 69.3062L213.602 81.8813C213.541 81.8864 213.483 81.8963 213.422 81.9015L212.625 82.4412C212.569 82.2754 212.515 82.1022 212.459 81.9365C212.427 81.8404 212.399 81.7416 212.366 81.6456C212.345 81.5806 212.325 81.5156 212.303 81.4582C212.296 81.4366 212.29 81.4149 212.286 81.398C212.264 81.3406 212.249 81.2849 212.23 81.2322C211.924 80.2652 211.624 79.2943 211.331 78.3196C211.328 78.3149 211.328 78.3149 211.329 78.3074C209.112 70.875 207.493 63.1915 207.089 55.5061C207.077 55.2748 207.062 55.039 207.059 54.802C206.896 51.3368 207.016 47.8639 207.417 44.4182C207.643 42.5321 207.964 40.6587 208.378 38.8052C209.459 34.018 211.283 29.4311 213.785 25.2125C218.773 16.8036 226.388 10.0883 235.707 7.64967C235.945 7.58742 236.179 7.52784 236.42 7.47034Z" fill="#D1F2C2"/>
<path d="M236.533 7.75997C227.643 15.968 221.31 27.0777 218.966 38.9849C218.459 41.5592 218.169 44.2148 218.484 46.8324C218.812 49.3816 219.814 51.7962 221.387 53.8256C222.815 55.7472 224.498 57.547 225.436 59.7835C226.425 62.1408 226.223 64.6889 225.163 66.9854C223.867 69.7952 221.642 71.9705 219.392 74.0219C216.894 76.2996 214.263 78.6257 212.981 81.8449C212.826 82.235 212.232 81.9704 212.387 81.581C214.617 75.98 220.517 73.2543 223.686 68.3237C225.165 66.023 225.961 63.2614 225.047 60.5894C224.248 58.2527 222.514 56.3953 221.051 54.4621C219.515 52.4322 218.397 50.2609 217.959 47.7304C217.511 45.1419 217.699 42.4692 218.138 39.8932C219.177 34.0592 221.123 28.4254 223.907 23.1979C227.051 17.2143 231.193 11.8141 236.153 7.23106C236.46 6.94752 236.838 7.47829 236.533 7.75997Z" fill="white"/>
<path d="M219.524 35.0741C217.572 34.3905 215.926 33.0332 214.88 31.2446C213.833 29.4559 213.455 27.3525 213.812 25.3099C213.886 24.8969 214.529 24.9923 214.455 25.4059C214.119 27.3074 214.472 29.2667 215.45 30.9302C216.427 32.5938 217.966 33.852 219.788 34.4778C220.183 34.6142 219.918 35.2098 219.524 35.0741Z" fill="white"/>
<path d="M220.535 52.9469C224.358 51.1393 227.362 47.9528 228.946 44.0229C229.103 43.6334 229.698 43.8978 229.541 44.2869C227.884 48.3733 224.752 51.6829 220.769 53.5552C220.389 53.7334 220.157 53.1241 220.535 52.9469Z" fill="white"/>
<path d="M227.592 17.8881C228.292 18.3105 229.086 18.5518 229.902 18.5903C230.719 18.6289 231.532 18.4635 232.269 18.109C232.646 17.926 232.878 18.5356 232.503 18.7173C231.687 19.1052 230.789 19.2867 229.887 19.2461C228.985 19.2055 228.106 18.944 227.328 18.4845C227.252 18.4473 227.192 18.3822 227.161 18.3023C227.13 18.2224 227.131 18.1337 227.163 18.0543C227.198 17.9755 227.263 17.9139 227.343 17.8827C227.423 17.8516 227.513 17.8535 227.592 17.8881Z" fill="white"/>
<path d="M59.9609 137.889H216.336V47.0935C216.336 46.4132 216.066 45.761 215.586 45.28C215.107 44.7989 214.456 44.5284 213.778 44.5276H62.5195C61.8412 44.5284 61.1908 44.7989 60.7112 45.28C60.2315 45.761 59.9617 46.4132 59.9609 47.0935V137.889Z" fill="#CACACA"/>
<path d="M211.505 48.0764H64.7925V131.61H211.505V48.0764Z" fill="white"/>
<path d="M59.825 135.432V146.637C59.8249 147.101 59.9162 147.561 60.0934 147.99C60.2706 148.419 60.5304 148.809 60.8579 149.138C61.1854 149.466 61.5741 149.727 62.002 149.904C62.4299 150.082 62.8885 150.174 63.3516 150.174H121.069V172.285H120.302C120.242 172.285 120.182 172.297 120.127 172.32C120.071 172.344 120.02 172.377 119.978 172.42C119.935 172.463 119.902 172.513 119.879 172.569C119.856 172.625 119.844 172.685 119.844 172.745V174.283C119.844 174.343 119.856 174.403 119.879 174.459C119.902 174.514 119.935 174.565 119.978 174.608C120.02 174.65 120.071 174.684 120.127 174.707C120.182 174.73 120.242 174.742 120.302 174.742H156.132C156.192 174.742 156.252 174.73 156.307 174.707C156.363 174.684 156.413 174.65 156.456 174.608C156.498 174.565 156.532 174.514 156.555 174.459C156.578 174.403 156.59 174.343 156.59 174.283V172.745C156.59 172.685 156.578 172.625 156.555 172.569C156.532 172.513 156.498 172.463 156.456 172.42C156.413 172.377 156.363 172.344 156.307 172.32C156.252 172.297 156.192 172.285 156.132 172.285H155.365V150.174H213.082C213.545 150.174 214.004 150.082 214.432 149.904C214.86 149.727 215.248 149.466 215.576 149.138C215.903 148.809 216.163 148.419 216.34 147.99C216.518 147.561 216.609 147.101 216.609 146.637V135.432L59.825 135.432Z" fill="#3F3D56"/>
<path d="M110.413 89.3872H74.6601C74.4109 89.3869 74.1721 89.2875 73.9959 89.1108C73.8197 88.9341 73.7206 88.6946 73.7203 88.4447V73.8955C73.7206 73.6456 73.8197 73.4061 73.9959 73.2294C74.1721 73.0527 74.4109 72.9533 74.6601 72.953H110.413C110.662 72.9533 110.901 73.0527 111.077 73.2294C111.253 73.4061 111.352 73.6456 111.353 73.8955V88.4447C111.352 88.6946 111.253 88.9341 111.077 89.1108C110.901 89.2875 110.662 89.3869 110.413 89.3872Z" fill="#FF758E"/>
<path d="M107.009 96.3665H78.0645C77.7654 96.3665 77.4785 96.2473 77.2671 96.0352C77.0556 95.8231 76.9368 95.5354 76.9368 95.2355C76.9368 94.9355 77.0556 94.6479 77.2671 94.4358C77.4785 94.2237 77.7654 94.1045 78.0645 94.1045H107.009C108.463 94.0841 108.477 96.387 107.009 96.3665Z" fill="#E4E4E4"/>
<path d="M107.009 101.55H78.0645C77.7654 101.55 77.4785 101.431 77.2671 101.219C77.0556 101.007 76.9368 100.719 76.9368 100.419C76.9368 100.119 77.0556 99.8316 77.2671 99.6195C77.4785 99.4074 77.7654 99.2882 78.0645 99.2882H107.009C108.463 99.2679 108.477 101.571 107.009 101.55Z" fill="#E4E4E4"/>
<path d="M107.009 106.734H78.0645C77.7654 106.734 77.4785 106.615 77.2671 106.403C77.0556 106.19 76.9368 105.903 76.9368 105.603C76.9368 105.303 77.0556 105.015 77.2671 104.803C77.4785 104.591 77.7654 104.472 78.0645 104.472H107.009C108.463 104.451 108.477 106.754 107.009 106.734Z" fill="#E4E4E4"/>
<path d="M156.025 89.3872H120.272C120.023 89.3869 119.784 89.2875 119.608 89.1108C119.432 88.9341 119.333 88.6946 119.333 88.4447V73.8955C119.333 73.6456 119.432 73.4061 119.608 73.2294C119.784 73.0527 120.023 72.9533 120.272 72.953H156.025C156.274 72.9533 156.513 73.0527 156.689 73.2294C156.865 73.4061 156.965 73.6456 156.965 73.8955V88.4447C156.965 88.6946 156.865 88.9341 156.689 89.1108C156.513 89.2875 156.274 89.3869 156.025 89.3872Z" fill="#FF758E"/>
<path d="M152.621 96.3665H123.677C123.378 96.3665 123.091 96.2473 122.879 96.0352C122.668 95.8231 122.549 95.5354 122.549 95.2355C122.549 94.9355 122.668 94.6479 122.879 94.4358C123.091 94.2237 123.378 94.1045 123.677 94.1045H152.621C154.075 94.0841 154.09 96.387 152.621 96.3665Z" fill="#E4E4E4"/>
<path d="M152.621 101.55H123.677C123.378 101.55 123.091 101.431 122.879 101.219C122.668 101.007 122.549 100.719 122.549 100.419C122.549 100.119 122.668 99.8316 122.879 99.6195C123.091 99.4074 123.378 99.2882 123.677 99.2882H152.621C154.075 99.2679 154.09 101.571 152.621 101.55Z" fill="#E4E4E4"/>
<path d="M152.621 106.734H123.677C123.378 106.734 123.091 106.615 122.879 106.403C122.668 106.19 122.549 105.903 122.549 105.603C122.549 105.303 122.668 105.015 122.879 104.803C123.091 104.591 123.378 104.472 123.677 104.472H152.621C154.075 104.451 154.09 106.754 152.621 106.734Z" fill="#E4E4E4"/>
<path d="M201.637 89.3872H165.885C165.635 89.3869 165.397 89.2875 165.22 89.1108C165.044 88.9341 164.945 88.6946 164.945 88.4447V73.8955C164.945 73.6456 165.044 73.4061 165.22 73.2294C165.397 73.0527 165.635 72.9533 165.885 72.953H201.637C201.887 72.9533 202.125 73.0527 202.302 73.2294C202.478 73.4061 202.577 73.6456 202.577 73.8955V88.4447C202.577 88.6946 202.478 88.9341 202.302 89.1108C202.125 89.2875 201.887 89.3869 201.637 89.3872Z" fill="#FF758E"/>
<path d="M198.233 96.3665H169.289C168.99 96.3665 168.703 96.2473 168.492 96.0352C168.28 95.8231 168.161 95.5354 168.161 95.2355C168.161 94.9355 168.28 94.6479 168.492 94.4358C168.703 94.2237 168.99 94.1045 169.289 94.1045H198.233C199.687 94.0841 199.702 96.387 198.233 96.3665Z" fill="#E4E4E4"/>
<path d="M198.233 101.55H169.289C168.99 101.55 168.704 101.43 168.493 101.218C168.282 101.006 168.163 100.719 168.163 100.419C168.163 100.12 168.282 99.8322 168.493 99.6202C168.704 99.4081 168.99 99.2887 169.289 99.2882H198.233C199.687 99.2679 199.702 101.571 198.233 101.55Z" fill="#E4E4E4"/>
<path d="M198.233 106.734H169.289C168.99 106.734 168.703 106.615 168.492 106.403C168.28 106.19 168.161 105.903 168.161 105.603C168.161 105.303 168.28 105.015 168.492 104.803C168.703 104.591 168.99 104.472 169.289 104.472H198.233C199.687 104.451 199.702 106.754 198.233 106.734Z" fill="#E4E4E4"/>
<path d="M262.731 73.1494L262.829 91.3856L263.227 91.3631L263.606 98.1146L262.866 98.1552L262.887 102.211L263.479 102.2L263.599 108.957L262.925 108.969L263.246 168.477C263.253 170.035 262.643 171.533 261.55 172.64C260.458 173.748 258.972 174.376 257.418 174.386L191.874 174.742C190.32 174.749 188.827 174.138 187.723 173.042C186.618 171.946 185.992 170.456 185.982 168.898L185.468 73.5698C185.461 72.0116 186.07 70.5143 187.163 69.4065C188.256 68.2986 189.742 67.6708 191.295 67.6608L256.839 67.3046C258.393 67.2982 259.885 67.9099 260.99 69.0055C262.094 70.1012 262.72 71.5914 262.731 73.1494Z" fill="#3F3D56"/>
<path d="M257.513 170.637L191.738 170.995C191.259 170.997 190.799 170.808 190.459 170.471C190.118 170.133 189.925 169.673 189.922 169.193L189.403 73.2316C189.401 72.7513 189.589 72.2898 189.926 71.9484C190.263 71.6069 190.721 71.4134 191.2 71.4102L256.975 71.0525C257.453 71.0505 257.914 71.239 258.254 71.5768C258.594 71.9145 258.787 72.3739 258.791 72.8542L259.309 168.816C259.311 169.296 259.124 169.757 258.787 170.099C258.45 170.44 257.992 170.634 257.513 170.637Z" fill="white"/>
<path d="M223.827 69.7829C224.103 69.7829 224.326 69.5591 224.326 69.283C224.326 69.0069 224.103 68.7831 223.827 68.7831C223.552 68.7831 223.329 69.0069 223.329 69.283C223.329 69.5591 223.552 69.7829 223.827 69.7829Z" fill="white"/>
<path d="M243.391 98.0626H205.322C205.057 98.0623 204.803 97.9564 204.615 97.7683C204.427 97.5802 204.322 97.3251 204.322 97.0591V81.5676C204.322 81.3016 204.427 81.0465 204.615 80.8584C204.803 80.6702 205.057 80.5644 205.322 80.5641H243.391C243.656 80.5644 243.91 80.6702 244.098 80.8583C244.285 81.0465 244.391 81.3015 244.391 81.5676V97.0591C244.391 97.3251 244.285 97.5802 244.098 97.7683C243.91 97.9564 243.656 98.0623 243.391 98.0626Z" fill="#FF758E"/>
<path d="M239.766 105.494H208.947C208.629 105.494 208.323 105.367 208.098 105.141C207.873 104.915 207.746 104.609 207.746 104.29C207.746 103.97 207.873 103.664 208.098 103.438C208.323 103.212 208.629 103.085 208.947 103.085H239.766C241.314 103.064 241.33 105.516 239.766 105.494Z" fill="#E4E4E4"/>
<path d="M239.766 111.013H208.947C208.629 111.013 208.324 110.886 208.099 110.66C207.875 110.434 207.748 110.128 207.748 109.809C207.748 109.49 207.875 109.184 208.099 108.958C208.324 108.732 208.629 108.605 208.947 108.605H239.766C241.314 108.583 241.33 111.035 239.766 111.013Z" fill="#E4E4E4"/>
<path d="M239.766 116.533H208.947C208.629 116.533 208.323 116.406 208.098 116.18C207.873 115.954 207.746 115.648 207.746 115.328C207.746 115.009 207.873 114.703 208.098 114.477C208.323 114.251 208.629 114.124 208.947 114.124H239.766C241.314 114.102 241.33 116.554 239.766 116.533Z" fill="#E4E4E4"/>
<path d="M243.391 143.013H205.322C205.057 143.013 204.803 142.907 204.615 142.719C204.427 142.531 204.322 142.276 204.322 142.01V126.518C204.322 126.252 204.427 125.997 204.615 125.809C204.803 125.621 205.057 125.515 205.322 125.515H243.391C243.656 125.515 243.91 125.621 244.098 125.809C244.285 125.997 244.391 126.252 244.391 126.518V142.01C244.391 142.276 244.285 142.531 244.098 142.719C243.91 142.907 243.656 143.013 243.391 143.013Z" fill="#FF758E"/>
<path d="M239.766 150.444H208.947C208.629 150.444 208.323 150.318 208.098 150.092C207.873 149.866 207.746 149.56 207.746 149.24C207.746 148.921 207.873 148.615 208.098 148.389C208.323 148.163 208.629 148.036 208.947 148.036H239.766C241.314 148.014 241.33 150.466 239.766 150.444Z" fill="#E4E4E4"/>
<path d="M239.766 155.964H208.947C208.629 155.963 208.324 155.836 208.099 155.61C207.875 155.385 207.748 155.079 207.748 154.76C207.748 154.44 207.875 154.135 208.099 153.909C208.324 153.683 208.629 153.556 208.947 153.555H239.766C241.314 153.534 241.33 155.986 239.766 155.964Z" fill="#E4E4E4"/>
<path d="M239.766 161.483H208.947C208.629 161.483 208.323 161.356 208.098 161.13C207.873 160.905 207.746 160.598 207.746 160.279C207.746 159.96 207.873 159.653 208.098 159.427C208.323 159.202 208.629 159.075 208.947 159.075H239.766C241.314 159.053 241.33 161.505 239.766 161.483Z" fill="#E4E4E4"/>
<path d="M74.2486 170.06L74.122 117.506L74.5997 117.504L74.5766 107.839L74.0989 107.84L74.0598 91.704C74.0584 91.1014 73.9386 90.5049 73.7073 89.9487C73.476 89.3925 73.1378 88.8874 72.7118 88.4623C72.2859 88.0372 71.7807 87.7004 71.225 87.4711C70.6693 87.2418 70.074 87.1245 69.4731 87.126L35.4216 87.2084C34.8207 87.2099 34.2259 87.33 33.6713 87.5619C33.1167 87.7939 32.6131 88.1331 32.1892 88.5603C31.7653 88.9874 31.4294 89.4942 31.2008 90.0515C30.9722 90.6088 30.8552 91.2058 30.8567 91.8085L30.8838 103.059L30.1229 103.078L30.291 109.836L30.9001 109.821L30.9037 111.312L30.2555 111.329L30.4235 118.087L30.92 118.074L31.0455 170.164C31.0458 170.767 31.1648 171.364 31.3957 171.921C31.6266 172.478 31.9648 172.983 32.391 173.409C32.8171 173.834 33.3228 174.171 33.879 174.4C34.4353 174.628 35.0311 174.745 35.6323 174.742L69.6837 174.66C70.8968 174.656 72.0587 174.169 72.9145 173.306C73.7703 172.444 74.2501 171.276 74.2486 170.06Z" fill="#3F3D56"/>
<path d="M34.591 172.639C34.1663 172.486 33.7989 172.206 33.5387 171.836C33.2785 171.466 33.1382 171.025 33.1367 170.573L32.9461 91.39C32.9447 90.8068 33.1744 90.247 33.5846 89.8336C33.9948 89.4202 34.5519 89.1872 35.1334 89.1858L42.3784 89.1682L42.2887 89.3901C42.1331 89.7754 42.0743 90.1931 42.1176 90.6065C42.1609 91.0199 42.3049 91.4162 42.5369 91.7607C42.7689 92.1051 43.0818 92.387 43.4481 92.5816C43.8143 92.7762 44.2226 92.8774 44.6371 92.8765L60.7161 92.8375C61.1163 92.8025 61.5027 92.6735 61.844 92.461C62.1853 92.2484 62.472 91.9583 62.6807 91.614C62.8865 91.2757 63.0095 90.8933 63.0399 90.4982C63.0702 90.1031 63.0069 89.7063 62.8553 89.3404L62.7645 89.1188L70.2483 89.1006C70.8296 89.1 71.3874 89.3306 71.7995 89.7419C72.2115 90.1531 72.4441 90.7115 72.4462 91.2945L72.6283 166.841C72.6302 168.388 72.0201 169.873 70.9321 170.969C69.844 172.066 68.3667 172.685 66.8242 172.69L35.3347 172.766C35.0813 172.767 34.8297 172.724 34.591 172.639Z" fill="white"/>
<path d="M46.9956 91.045C47.2709 91.045 47.494 90.8212 47.494 90.5451C47.494 90.269 47.2709 90.0452 46.9956 90.0452C46.7202 90.0452 46.4971 90.269 46.4971 90.5451C46.4971 90.8212 46.7202 91.045 46.9956 91.045Z" fill="white"/>
<path d="M66.2649 115.38H40.3946C40.2143 115.38 40.0415 115.308 39.914 115.18C39.7865 115.052 39.7148 114.879 39.7146 114.698V104.171C39.7148 103.99 39.7865 103.816 39.914 103.689C40.0415 103.561 40.2143 103.489 40.3946 103.489H66.2649C66.4452 103.489 66.618 103.561 66.7455 103.689C66.873 103.816 66.9447 103.99 66.9449 104.171V114.698C66.9447 114.879 66.873 115.052 66.7455 115.18C66.618 115.308 66.4452 115.38 66.2649 115.38Z" fill="#FF758E"/>
<path d="M63.8016 120.43H42.858C42.7507 120.431 42.6444 120.41 42.5452 120.369C42.4461 120.328 42.3559 120.267 42.28 120.191C42.204 120.115 42.1438 120.025 42.1027 119.926C42.0616 119.826 42.0404 119.72 42.0404 119.612C42.0404 119.504 42.0616 119.398 42.1027 119.298C42.1438 119.199 42.204 119.109 42.28 119.033C42.3559 118.957 42.4461 118.897 42.5452 118.855C42.6444 118.814 42.7507 118.793 42.858 118.794H63.8016C64.8539 118.779 64.8645 120.445 63.8016 120.43Z" fill="#E4E4E4"/>
<path d="M63.8016 124.181H42.858C42.6416 124.181 42.434 124.095 42.281 123.942C42.128 123.788 42.042 123.58 42.042 123.363C42.042 123.146 42.128 122.938 42.281 122.784C42.434 122.631 42.6416 122.545 42.858 122.545H63.8016C64.8539 122.53 64.8644 124.196 63.8016 124.181Z" fill="#E4E4E4"/>
<path d="M63.8016 127.932H42.858C42.7507 127.932 42.6444 127.911 42.5452 127.87C42.4461 127.829 42.3559 127.769 42.28 127.693C42.204 127.617 42.1438 127.527 42.1027 127.427C42.0616 127.328 42.0404 127.221 42.0404 127.114C42.0404 127.006 42.0616 126.9 42.1027 126.8C42.1438 126.701 42.204 126.611 42.28 126.535C42.3559 126.458 42.4461 126.398 42.5452 126.357C42.6444 126.316 42.7507 126.295 42.858 126.295H63.8016C64.8539 126.281 64.8645 127.947 63.8016 127.932Z" fill="#E4E4E4"/>
<path d="M66.2649 146.928H40.3946C40.2143 146.928 40.0415 146.856 39.914 146.728C39.7865 146.6 39.7148 146.427 39.7146 146.246V135.718C39.7148 135.538 39.7865 135.364 39.914 135.236C40.0415 135.108 40.2143 135.037 40.3946 135.036H66.2649C66.4452 135.037 66.618 135.108 66.7455 135.236C66.873 135.364 66.9447 135.538 66.9449 135.718V146.246C66.9447 146.427 66.873 146.6 66.7455 146.728C66.618 146.856 66.4452 146.928 66.2649 146.928Z" fill="#FF758E"/>
<path d="M63.8016 151.978H42.858C42.7507 151.978 42.6444 151.957 42.5452 151.916C42.4461 151.875 42.3559 151.815 42.28 151.739C42.204 151.663 42.1438 151.573 42.1027 151.473C42.0616 151.374 42.0404 151.267 42.0404 151.16C42.0404 151.052 42.0616 150.946 42.1027 150.846C42.1438 150.747 42.204 150.657 42.28 150.581C42.3559 150.505 42.4461 150.444 42.5452 150.403C42.6444 150.362 42.7507 150.341 42.858 150.341H63.8016C64.8539 150.327 64.8645 151.993 63.8016 151.978Z" fill="#E4E4E4"/>
<path d="M63.8016 155.729H42.858C42.6416 155.729 42.434 155.643 42.281 155.489C42.128 155.336 42.042 155.128 42.042 154.911C42.042 154.694 42.128 154.485 42.281 154.332C42.434 154.178 42.6416 154.092 42.858 154.092H63.8016C64.8539 154.078 64.8644 155.744 63.8016 155.729Z" fill="#E4E4E4"/>
<path d="M63.8016 159.48H42.858C42.7507 159.48 42.6444 159.459 42.5452 159.418C42.4461 159.377 42.3559 159.317 42.28 159.241C42.204 159.165 42.1438 159.074 42.1027 158.975C42.0616 158.876 42.0404 158.769 42.0404 158.661C42.0404 158.554 42.0616 158.447 42.1027 158.348C42.1438 158.248 42.204 158.158 42.28 158.082C42.3559 158.006 42.4461 157.946 42.5452 157.905C42.6444 157.864 42.7507 157.843 42.858 157.843H63.8016C64.8539 157.828 64.8645 159.495 63.8016 159.48Z" fill="#E4E4E4"/>
<path d="M8.43411 171.866L11.2453 171.866L12.5825 160.992H8.43347L8.43411 171.866Z" fill="#A0616A"/>
<path d="M7.71704 170.946L8.50826 170.946L11.5973 169.686L13.253 170.946C14.1886 170.946 15.0862 171.319 15.7478 171.982C16.4094 172.646 16.7811 173.546 16.7811 174.484V174.599L7.7172 174.599L7.71704 170.946Z" fill="#2F2E41"/>
<path d="M19.3275 170.09L22.0693 170.711L25.7622 160.399L21.7153 159.483L19.3275 170.09Z" fill="#A0616A"/>
<path d="M18.8302 169.034L19.602 169.208L22.8919 168.662L24.2302 170.256C25.1428 170.463 25.9365 171.025 26.4361 171.818C26.9357 172.612 27.1006 173.572 26.8946 174.487L26.8693 174.599L18.028 172.597L18.8302 169.034Z" fill="#2F2E41"/>
<path d="M4.87375 105.387C3.55581 109.374 3.69514 113.701 5.19054 118.346L5.8298 144.494C5.8298 144.494 4.87735 161.642 7.9507 167.676H12.4079L14.6147 142.928L14.8919 126.317L24.4477 140.331L18.3613 167.271L23.8471 167.763L33.7236 138.527L21.5379 110.163L4.87375 105.387Z" fill="#2F2E41"/>
<path d="M22.3327 111L6.12528 108.4C5.70021 108.264 5.30963 108.036 4.98036 107.734C4.6511 107.432 4.39093 107.062 4.21774 106.649C4.04454 106.237 3.96241 105.792 3.97699 105.344C3.99157 104.897 4.10251 104.458 4.30219 104.057L5.03719 102.583L4.75168 87.0922C4.71727 85.0772 5.21258 83.0887 6.18779 81.3267C7.16299 79.5646 8.5837 78.0912 10.307 77.0547L11.8875 76.1069L12.6862 74.0726L20.0514 74.2528L20.0729 76.9208L22.7106 81.1391L22.7105 81.1566L22.545 104.116L21.818 106.485L22.9172 109.241L22.3327 111Z" fill="#3F3D56"/>
<path d="M17.0434 71.543C20.7393 71.543 23.7354 68.5381 23.7354 64.8314C23.7354 61.1247 20.7393 58.1199 17.0434 58.1199C13.3475 58.1199 10.3513 61.1247 10.3513 64.8314C10.3513 68.5381 13.3475 71.543 17.0434 71.543Z" fill="#A0616A"/>
<path d="M10.0749 66.2946C9.87533 65.4513 9.96697 64.2646 10.0798 63.4154C10.2242 62.2958 10.6016 61.219 11.1876 60.255C11.7735 59.291 12.5548 58.4611 13.481 57.8193C13.8361 57.5488 14.258 57.3807 14.7014 57.3329C14.923 57.3142 15.1448 57.3663 15.3351 57.4817C15.5254 57.5971 15.6743 57.77 15.7607 57.9755C15.8723 57.6962 16.0398 57.4427 16.2529 57.2308C16.466 57.0188 16.7201 56.853 16.9996 56.7434C17.561 56.5276 18.1649 56.4461 18.7632 56.5051C19.923 56.601 21.0352 57.01 21.9819 57.6887C22.9286 58.3673 23.6745 59.2904 24.1403 60.3599C24.319 60.7858 24.8183 59.2128 25.0447 59.6152C25.2529 60.0334 25.6159 60.3534 26.0563 60.5065C26.5 60.6307 26.6803 62.4644 26.8549 62.0368C26.9904 62.3528 27.044 62.698 27.0106 63.0403C26.9772 63.3827 26.858 63.711 26.6641 63.9947C26.4701 64.2784 26.2078 64.5082 25.9014 64.6628C25.595 64.8174 25.2546 64.8918 24.9119 64.8789C24.4639 64.8208 24.0198 64.7356 23.5821 64.6236C22.7783 64.522 21.9653 64.7191 21.2965 65.1776C20.6277 65.6361 20.1494 66.3243 19.952 67.1123C19.8298 66.6541 19.6347 66.2186 19.3741 65.8228C19.2418 65.626 19.0646 65.4636 18.8572 65.3493C18.6497 65.235 18.418 65.172 18.1814 65.1656C17.9552 65.1916 17.7367 65.2637 17.5394 65.3775C17.342 65.4913 17.1699 65.6444 17.0336 65.8273C16.739 66.1742 16.5177 66.579 16.2209 66.9241C15.3501 67.9366 14.1723 70.2978 12.9312 70.1256C11.9518 69.9897 10.3475 67.446 10.0749 66.2946Z" fill="#2F2E41"/>
<path d="M41.9907 106.101C41.7059 106.225 41.3974 106.285 41.087 106.277C40.7766 106.268 40.4717 106.192 40.194 106.052C39.9163 105.913 39.6724 105.714 39.4795 105.47C39.2867 105.226 39.1495 104.943 39.0777 104.64L31.5675 103.879L34.0452 100.829L40.7972 102.019C41.3127 101.932 41.8422 102.037 42.2854 102.315C42.7286 102.594 43.0546 103.025 43.2018 103.528C43.3489 104.032 43.3069 104.571 43.0836 105.045C42.8604 105.52 42.4716 105.895 41.9907 106.101Z" fill="#A0616A"/>
<path d="M37.3714 104.891L19.845 103.272L19.821 103.244L7.02975 88.5447C6.18795 87.2513 5.871 85.684 6.1438 84.1639C6.4166 82.6437 7.2585 81.2856 8.49714 80.3677C9.18248 79.8611 9.96704 79.5058 10.7992 79.3253C11.6313 79.1447 12.4921 79.1429 13.325 79.32C14.1578 79.4971 14.9438 79.8492 15.6313 80.3529C16.3187 80.8566 16.892 81.5007 17.3133 82.2427L25.1917 96.1169L37.5645 101.103L37.3714 104.891Z" fill="#3F3D56"/>
<path d="M308.618 175H0.382177C0.281007 175 0.18408 174.959 0.112645 174.887C0.0412106 174.815 0.00109863 174.718 0.00109863 174.617C0.00109863 174.515 0.0412106 174.418 0.112645 174.346C0.18408 174.274 0.281007 174.234 0.382177 174.233H308.618C308.719 174.233 308.816 174.274 308.888 174.346C308.96 174.418 309 174.515 309 174.617C309 174.718 308.96 174.816 308.888 174.888C308.816 174.96 308.719 175 308.618 175Z" fill="#CCCCCC"/>
<path d="M255.014 106.488C255.3 106.516 255.589 106.48 255.86 106.384C256.131 106.288 256.377 106.133 256.582 105.93C256.787 105.728 256.945 105.483 257.045 105.213C257.145 104.943 257.185 104.654 257.162 104.366L263.557 101.543L260.506 99.5681L254.901 102.552C254.422 102.623 253.986 102.868 253.675 103.24C253.364 103.612 253.2 104.085 253.214 104.571C253.228 105.056 253.419 105.519 253.751 105.873C254.082 106.226 254.532 106.445 255.014 106.488Z" fill="#FFB6B6"/>
<path d="M258.774 103.725L257.638 99.759L269.134 93.9747L275.915 80.8698C276.251 80.222 276.724 79.6562 277.302 79.2125C277.879 78.7689 278.547 78.4582 279.258 78.3026C279.969 78.147 280.706 78.1502 281.415 78.3121C282.125 78.474 282.79 78.7906 283.364 79.2394C284.4 80.0512 285.072 81.2418 285.233 82.55C285.394 83.8582 285.032 85.1772 284.225 86.2175L274.028 99.3313L258.774 103.725Z" fill="#E4E4E4"/>
</g>
<defs>
<clipPath id="clip0_9_335">
<rect width="309" height="175" fill="white"/>
</clipPath>
</defs>
</svg>
