<svg width="118" height="81" viewBox="0 0 118 81" fill="none" xmlns="http://www.w3.org/2000/svg">
<path d="M102.89 9.00685H102.907C106.868 9.1372 110.425 10.5497 112.963 12.7373C115.56 14.9627 117.099 17.9893 117.002 21.2907C116.936 23.2325 116.315 25.1143 115.213 26.711C114.028 28.4283 112.449 29.8345 110.609 30.8112C108.529 31.9527 106.238 32.6529 103.877 32.8683C101.715 33.0583 99.5387 32.7644 97.5037 32.008L89.5864 34.3875L91.8431 28.6781C90.8129 27.8091 89.9414 26.7665 89.2677 25.5971C88.2607 23.8439 87.8365 21.8141 88.0568 19.8024C88.2907 17.8044 89.0847 15.9141 90.3465 14.3513C91.4049 13.0297 92.7073 11.9257 94.1824 11.0996C95.4813 10.3667 96.8768 9.82171 98.3275 9.48086C99.8205 9.12323 101.354 8.96387 102.888 9.00685H102.89ZM108.598 18.961C108.962 18.9605 109.317 19.0683 109.619 19.2706C109.922 19.4729 110.157 19.7607 110.297 20.0976C110.436 20.4345 110.473 20.8053 110.402 21.1631C110.332 21.521 110.157 21.8497 109.9 22.1079C109.643 22.366 109.316 22.5418 108.96 22.6132C108.603 22.6845 108.234 22.6481 107.898 22.5086C107.563 22.3691 107.276 22.1328 107.074 21.8295C106.872 21.5263 106.764 21.1697 106.764 20.8049C106.764 20.3163 106.957 19.8476 107.301 19.5019C107.645 19.1562 108.112 18.9616 108.598 18.961ZM96.4674 18.961C96.8306 18.961 97.1857 19.0691 97.4877 19.2717C97.7897 19.4743 98.0251 19.7623 98.1641 20.0992C98.3031 20.4362 98.3395 20.8069 98.2686 21.1646C98.1978 21.5223 98.0229 21.8508 97.766 22.1087C97.5092 22.3666 97.1819 22.5422 96.8257 22.6133C96.4694 22.6845 96.1002 22.648 95.7646 22.5084C95.429 22.3688 95.1422 22.1325 94.9404 21.8293C94.7386 21.5261 94.6309 21.1696 94.6309 20.8049C94.6315 20.316 94.8252 19.8474 95.1695 19.5017C95.5138 19.1561 95.9805 18.9616 96.4674 18.961ZM102.532 18.961C102.895 18.9605 103.25 19.0683 103.553 19.2706C103.855 19.4729 104.091 19.7607 104.23 20.0976C104.369 20.4345 104.406 20.8053 104.336 21.1631C104.265 21.521 104.09 21.8497 103.833 22.1079C103.577 22.366 103.249 22.5418 102.893 22.6132C102.537 22.6845 102.167 22.6481 101.832 22.5086C101.496 22.3691 101.209 22.1328 101.007 21.8295C100.805 21.5263 100.698 21.1697 100.698 20.8049C100.698 20.3163 100.891 19.8476 101.235 19.5019C101.578 19.1562 102.045 18.9616 102.532 18.961ZM102.862 10.4289H102.846C101.436 10.3908 100.027 10.5382 98.6556 10.8673C97.3337 11.1772 96.0621 11.6735 94.8788 12.3415C93.5642 13.0797 92.4036 14.0655 91.4607 15.2448C90.3687 16.5947 89.6796 18.2274 89.4731 19.954C89.2864 21.6663 89.6477 23.3938 90.5046 24.8861C91.1816 26.0476 92.0752 27.0671 93.1367 27.8889L93.5521 28.2183L91.9918 32.1644L97.5533 30.4841L97.7893 30.5741C99.6894 31.3176 101.735 31.6096 103.766 31.4274C105.933 31.2285 108.035 30.583 109.941 29.5313C111.574 28.6721 112.978 27.4338 114.037 25.9194C114.985 24.5457 115.521 22.9278 115.581 21.2576C115.663 18.4135 114.304 15.7828 112.04 13.8322C109.729 11.8367 106.488 10.5521 102.872 10.4431L102.862 10.4289Z" fill="black"/>
<path fill-rule="evenodd" clip-rule="evenodd" d="M44.9065 62.3732C44.6242 63.0629 44.4061 63.7777 44.2552 64.5083C38.5035 57.4308 37.2463 55.8229 36.6145 46.7881H36.7513C37.1291 45.5361 37.2007 43.5327 37.8847 43.0385C38.1073 41.7665 38.1664 40.4707 38.0606 39.1834C38.0606 39.0055 38.0215 38.8408 37.9954 38.6694C39.435 40.5673 39.8258 42.2609 41.0243 44.9166C42.2229 47.5723 43.0892 47.9875 46.0399 48.5279C46.8462 48.6743 47.6635 48.7493 48.4826 48.7519C51.4985 48.7519 54.4297 48.2972 55.5957 45.6283C55.9409 44.831 56.5141 43.9874 56.931 43.111C57.4782 41.9512 58.4487 41.2724 59.0349 41.2988C59.6212 41.3251 60.4745 42.05 60.9891 43.2098C61.7317 44.8705 62.7087 46.7091 63.3406 47.2033C63.7839 47.594 64.2938 47.8999 64.8452 48.1061C66.7147 48.8376 70.3364 48.8178 72.3296 48.4883C72.4794 48.4883 72.6227 48.4356 72.7725 48.4027C73.9574 48.1145 75.0111 47.4294 75.7623 46.4587C76.806 45.0934 77.5921 43.5453 78.0813 41.8919C78.4813 40.8557 78.9902 39.8659 79.599 38.9396C79.6576 38.8605 79.7423 38.7551 79.8465 38.6365C79.8465 39.2955 79.8465 40.0335 79.8465 40.7914C79.9612 42.2551 80.1548 43.7114 80.4262 45.1539C79.8726 54.037 78.205 57.332 72.7465 64.4161C71.092 57.7735 59.8948 55.4473 58.5334 57.9382C56.3578 55.0782 46.3656 58.9003 44.9065 62.3732ZM48.6324 38.1093C48.0397 40.1983 52.5993 40.251 53.4526 43.1044L53.8304 40.7255C54.1691 37.8391 50.5735 38.2345 48.6194 38.0895L48.6324 38.1093ZM71.4307 36.8308C70.8444 38.933 75.4041 38.9725 76.2444 41.8326L76.6287 39.4536C76.9674 36.5672 73.3718 36.956 71.4177 36.8177L71.4307 36.8308ZM37.305 35.2427C37.305 29.8324 37.7544 25.6215 39.2591 24.9822C40.2362 22.9394 41.5454 22.4254 43.0371 22.8076C43.3237 21.3117 42.77 19.5917 42.0209 17.6806C43.2586 18.2474 44.4766 20.198 44.9652 22.8603C48.3133 22.03 52.5342 22.0234 57.6605 22.8603C58.5619 23.6448 59.7306 24.0421 60.9174 23.9674C62.7152 23.8949 64.1743 23.2227 65.7441 23.2689C66.617 23.2689 67.4573 23.9806 68.4148 24.0794C68.9229 24.1321 69.4244 24.1651 69.9325 24.1717C72.3744 24.2408 74.794 23.6855 76.9674 22.5572C85.9564 17.8849 81.5271 6.41195 73.3067 4.25706C68.3497 2.93909 62.1485 3.7101 56.8072 1.8254C55.4068 1.31798 53.9281 0.724887 52.3257 0L55.2244 3.78259C50.4563 2.16807 48.1309 1.44318 44.8023 3.50582C46.9063 3.22904 48.5478 3.36084 49.0949 3.66397C46.4047 4.3625 43.8057 5.64094 42.1317 7.295C44.3988 7.24658 46.6233 7.92219 48.4891 9.22583C44.3464 9.22583 41.2328 8.50095 38.3667 8.80408C36.7513 8.97542 32.3024 9.97708 34.5692 12.3297C34.8446 12.5708 35.171 12.7449 35.5233 12.8386C35.8756 12.9323 36.2444 12.943 36.6015 12.87C36.7578 13.931 34.5952 14.188 33.5921 14.847C31.9181 16.0134 29.9118 18.0101 30.003 20.2178C30.0493 20.7676 30.2153 21.3002 30.4889 21.7776C30.7626 22.2549 31.1371 22.6652 31.5858 22.9789C30.003 25.7598 30.4785 29.3447 32.6411 33.6084L34.3868 37.1406L35.4355 46.7881H35.4746C35.6049 59.098 37.0965 78.7293 53.2768 80.9171C55.017 81.0845 56.7719 80.998 58.4878 80.6601C68.9945 83.2961 79.9833 69.9911 80.8692 60.5874C81.3104 56.4076 81.4367 52.1999 81.247 48.0007L80.8105 46.4718C80.857 46.5693 80.9092 46.664 80.9669 46.7552C80.9669 44.2774 80.8692 42.9331 81.3903 40.5212C81.644 39.0644 81.7271 37.5824 81.6378 36.106C81.6607 35.9996 81.6607 35.8894 81.6378 35.783C81.572 34.6465 81.6908 33.5067 81.9895 32.409C82.6409 30.353 83.8916 30.0103 82.6409 26.9987C81.5401 23.974 79.4947 23.17 76.5961 24.3628C76.5694 24.5061 76.5793 24.654 76.6249 24.7924C76.6705 24.9308 76.7503 25.0551 76.8567 25.1536C78.1594 26.722 77.6058 27.4271 78.2311 29.6413C78.4721 30.5046 78.8825 31.2822 79.1625 32.442C79.399 33.3462 79.5689 34.2669 79.6706 35.1965C74.5247 34.5376 69.9781 34.5376 64.8713 36.4223C63.2429 37.0219 61.2692 38.3465 59.9143 38.7024C57.869 39.2493 56.006 37.7666 54.1561 36.9824C49.3419 34.9551 44.0779 34.2723 38.9139 35.0054C38.3662 35.0294 37.8214 35.0999 37.2854 35.2163L37.305 35.2427ZM49.2187 66.7621C49.4343 65.5369 49.9418 64.3833 50.6973 63.4012C51.8958 61.6351 52.6514 61.7472 54.3971 62.024C57.4859 62.5171 60.6385 62.4209 63.6923 61.7406C65.6986 61.7406 67.7569 65.2662 67.555 66.9202C67.3531 68.5743 64.4153 70.3338 62.839 70.3206C61.432 70.3206 59.9469 69.5496 58.3966 68.001C55.2439 71.2959 52.0196 70.9137 49.2187 66.7621Z" fill="black"/>
<path d="M13.6261 41.0067H13.6101C9.78649 41.1351 6.35254 42.5261 3.90297 44.6802C1.39643 46.8717 -0.0892658 49.8521 0.00415993 53.1031C0.0673428 55.0153 0.666996 56.8683 1.73139 58.4406C2.87523 60.1318 4.39916 61.5165 6.1748 62.4782C8.1827 63.6023 10.3947 64.2918 12.6736 64.504C14.7603 64.691 16.8616 64.4017 18.826 63.6568L26.4686 66L24.2902 60.3777C25.2847 59.522 26.1259 58.4953 26.7763 57.3437C27.7483 55.6173 28.1578 53.6185 27.9452 51.6375C27.7194 49.67 26.9529 47.8085 25.7349 46.2696C24.7132 44.9682 23.4559 43.881 22.0321 43.0675C20.7783 42.3458 19.4312 41.8092 18.0307 41.4735C16.5895 41.1214 15.1094 40.9644 13.6283 41.0067H13.6261ZM8.11623 50.8089C7.7655 50.8085 7.42252 50.9146 7.13069 51.1138C6.83885 51.313 6.61127 51.5965 6.47674 51.9282C6.34221 52.2599 6.30678 52.6251 6.37493 52.9775C6.44308 53.3299 6.61174 53.6536 6.85958 53.9078C7.10742 54.1619 7.4233 54.3351 7.76725 54.4054C8.11121 54.4756 8.46777 54.4398 8.79184 54.3024C9.11592 54.1651 9.39292 53.9323 9.58782 53.6337C9.78272 53.335 9.88675 52.9839 9.88675 52.6247C9.88675 52.1435 9.70029 51.682 9.36832 51.3416C9.03634 51.0011 8.58601 50.8096 8.11623 50.8089ZM19.8263 50.8089C19.4757 50.8089 19.1329 50.9154 18.8414 51.1149C18.5499 51.3145 18.3226 51.598 18.1885 51.9298C18.0543 52.2616 18.0192 52.6267 18.0876 52.9789C18.156 53.3311 18.3248 53.6547 18.5728 53.9086C18.8207 54.1625 19.1366 54.3355 19.4805 54.4055C19.8243 54.4756 20.1808 54.4396 20.5047 54.3022C20.8287 54.1648 21.1055 53.932 21.3003 53.6334C21.4951 53.3349 21.5991 52.9838 21.5991 52.6247C21.5985 52.1433 21.4115 51.6818 21.0792 51.3414C20.7469 51.0011 20.2963 50.8096 19.8263 50.8089ZM13.9724 50.8089C13.6217 50.8085 13.2787 50.9146 12.9869 51.1138C12.695 51.313 12.4675 51.5965 12.3329 51.9282C12.1984 52.2599 12.163 52.6251 12.2311 52.9775C12.2993 53.3299 12.4679 53.6536 12.7158 53.9078C12.9636 54.1619 13.2795 54.3351 13.6234 54.4054C13.9674 54.4756 14.324 54.4398 14.648 54.3024C14.9721 54.1651 15.2491 53.9323 15.444 53.6337C15.6389 53.335 15.7429 52.9839 15.7429 52.6247C15.7429 52.1435 15.5565 51.682 15.2245 51.3416C14.8925 51.0011 14.4422 50.8096 13.9724 50.8089ZM13.6534 42.4071H13.6693C15.0302 42.3695 16.39 42.5147 17.714 42.8388C18.9901 43.144 20.2176 43.6327 21.3599 44.2905C22.6288 45.0175 23.7491 45.9882 24.6594 47.1495C25.7135 48.4788 26.3786 50.0865 26.578 51.7868C26.7582 53.473 26.4094 55.1741 25.5822 56.6436C24.9288 57.7873 24.0661 58.7913 23.0415 59.6006L22.6405 59.925L24.1467 63.8108L18.7781 62.1561L18.5503 62.2448C16.7161 62.9769 14.7414 63.2645 12.7807 63.085C10.6894 62.8892 8.66015 62.2536 6.81966 61.2179C5.24399 60.3719 3.88852 59.1524 2.86617 57.6611C1.9509 56.3084 1.43369 54.7152 1.37592 53.0704C1.29617 50.2698 2.60868 47.6792 4.79393 45.7585C7.02474 43.7934 10.1534 42.5284 13.6443 42.4211L13.6534 42.4071Z" fill="black"/>
</svg>
