<svg width="89" height="89" viewBox="0 0 89 89" fill="none" xmlns="http://www.w3.org/2000/svg">
<rect x="58.6923" y="29.5962" width="29.8077" height="29.8077" fill="white" stroke="black"/>
<rect x="58.6923" y="0.5" width="29.8077" height="29.8077" fill="white" stroke="black"/>
<rect x="58.6923" y="58.6924" width="29.8077" height="29.8077" fill="white" stroke="black"/>
<rect x="29.5962" y="29.5962" width="29.8077" height="29.8077" fill="white" stroke="black"/>
<rect x="29.5962" y="0.5" width="29.8077" height="29.8077" fill="white" stroke="black"/>
<rect x="29.5962" y="58.6924" width="29.8077" height="29.8077" fill="white" stroke="black"/>
<rect x="0.5" y="29.5962" width="29.8077" height="29.8077" fill="white" stroke="black"/>
<rect x="0.5" y="0.5" width="29.8077" height="29.8077" fill="white" stroke="black"/>
<rect x="0.5" y="58.6924" width="29.8077" height="29.8077" fill="white" stroke="black"/>
<path d="M14.4151 21.6431C14.3711 21.6724 14.3124 21.6724 14.2391 21.6431C14.1657 21.6284 14.0851 21.5844 13.9971 21.5111C13.9091 21.4524 13.8137 21.3791 13.7111 21.2911C13.6524 21.2324 13.6157 21.1664 13.6011 21.0931C13.5864 21.0051 13.6011 20.8584 13.6451 20.6531C13.6891 20.4478 13.7551 20.1178 13.8431 19.6631C13.9017 19.3698 13.9677 19.0764 14.0411 18.7831C14.1144 18.4898 14.1804 18.2478 14.2391 18.0571C14.2977 17.8518 14.3271 17.7491 14.3271 17.7491C14.4004 17.7198 14.5031 17.4998 14.6351 17.0891C14.7817 16.6784 14.9431 16.1798 15.1191 15.5931C15.1777 15.3878 15.2804 15.0431 15.4271 14.5591C15.5737 14.0751 15.7204 13.6058 15.8671 13.1511C15.9991 12.7258 16.1091 12.3444 16.1971 12.0071C16.2851 11.6551 16.3291 11.4791 16.3291 11.4791C16.3291 11.4791 16.2191 11.5451 15.9991 11.6771C15.7937 11.7944 15.5297 11.9558 15.2071 12.1611C14.8844 12.3518 14.5691 12.5644 14.2611 12.7991C14.0117 12.9458 13.7111 13.1511 13.3591 13.4151C13.0217 13.6791 12.7211 13.8918 12.4571 14.0531C12.0611 14.3611 11.8191 14.5371 11.7311 14.5811C11.6431 14.6104 11.5331 14.5884 11.4011 14.5151C11.2104 14.3538 11.0784 14.1851 11.0051 14.0091C10.9464 13.8331 10.9611 13.6718 11.0491 13.5251C11.0784 13.5104 11.1664 13.4518 11.3131 13.3491C11.4744 13.2464 11.6504 13.1291 11.8411 12.9971C12.0317 12.8651 12.2077 12.7404 12.3691 12.6231C12.5451 12.5058 12.6697 12.4251 12.7431 12.3811C12.7871 12.3811 12.8677 12.3298 12.9851 12.2271C13.1024 12.1244 13.2271 12.0291 13.3591 11.9411C13.4324 11.8531 13.6891 11.6551 14.1291 11.3471C14.5691 11.0391 15.0457 10.6944 15.5591 10.3131C16.1017 9.97576 16.5564 9.70443 16.9231 9.49909C17.3044 9.29376 17.5244 9.19843 17.5831 9.2131C17.6271 9.2131 17.6931 9.24243 17.7811 9.3011C17.8837 9.35976 17.9791 9.43309 18.0671 9.5211C18.1551 9.6091 18.2064 9.69709 18.2211 9.78509C18.3091 9.88776 18.2651 10.1224 18.0891 10.4891C18.0304 10.6211 17.9351 10.8631 17.8031 11.2151C17.6711 11.5524 17.5244 11.9484 17.3631 12.4031C17.2164 12.8431 17.0697 13.2831 16.9231 13.7231C16.7911 14.1484 16.6811 14.5151 16.5931 14.8231C16.4757 15.2778 16.3657 15.6298 16.2631 15.8791C16.1751 16.1284 16.0871 16.3704 15.9991 16.6051C15.9257 16.8251 15.8377 17.1331 15.7351 17.5291C15.6324 17.7638 15.5224 18.0644 15.4051 18.4311C15.3024 18.7831 15.2071 19.1351 15.1191 19.4871C15.0311 19.8244 14.9651 20.1031 14.9211 20.3231C14.8037 20.6458 14.7084 20.9318 14.6351 21.1811C14.5617 21.4304 14.4884 21.5844 14.4151 21.6431Z" fill="black"/>
<path d="M44.0874 51.846C43.9848 51.714 43.9334 51.56 43.9334 51.384C43.9334 51.208 43.9994 50.8487 44.1314 50.306C44.2048 49.9247 44.2928 49.514 44.3954 49.074C44.4981 48.6193 44.5788 48.26 44.6374 47.996C44.7548 47.7173 44.8428 47.4607 44.9014 47.226C44.9748 46.9913 45.0114 46.874 45.0114 46.874C45.0114 46.874 44.9161 46.8813 44.7254 46.896C44.5348 46.9107 44.3074 46.9767 44.0434 47.094C43.3101 47.27 42.7381 47.3213 42.3274 47.248C41.9314 47.1747 41.6161 46.94 41.3814 46.544C41.3081 46.4707 41.2421 46.346 41.1834 46.17C41.1394 45.9793 41.1174 45.796 41.1174 45.62C41.1174 45.444 41.1541 45.3193 41.2274 45.246C41.3154 45.0553 41.4034 44.8647 41.4914 44.674C41.5941 44.4833 41.6748 44.3147 41.7334 44.168C41.8068 44.0213 41.8434 43.9333 41.8434 43.904C41.8434 43.86 41.8581 43.816 41.8874 43.772C41.9314 43.7133 41.9534 43.6547 41.9534 43.596C42.0121 43.464 42.1514 43.222 42.3714 42.87C42.6061 42.5033 42.8628 42.1073 43.1414 41.682C43.4348 41.2567 43.7061 40.868 43.9554 40.516C44.2194 40.164 44.4101 39.9367 44.5274 39.834C44.6448 39.7753 44.7694 39.7313 44.9014 39.702C45.0334 39.658 45.1214 39.6653 45.1654 39.724C45.2094 39.7973 45.2534 39.9073 45.2974 40.054C45.3414 40.2007 45.3708 40.3327 45.3854 40.45C45.4148 40.5673 45.4074 40.626 45.3634 40.626C45.3634 40.626 45.3414 40.6333 45.2974 40.648C45.2681 40.648 45.2534 40.6773 45.2534 40.736C45.2534 40.7947 45.1801 40.9193 45.0334 41.11C44.8868 41.3007 44.7254 41.4987 44.5494 41.704C44.3441 41.9827 44.1534 42.254 43.9774 42.518C43.8014 42.7673 43.6328 43.0167 43.4714 43.266C43.3101 43.5153 43.1488 43.7647 42.9874 44.014C42.8408 44.2633 42.6941 44.52 42.5474 44.784C42.3861 45.2827 42.2908 45.598 42.2614 45.73C42.2468 45.862 42.2688 45.9573 42.3274 46.016C42.4154 46.06 42.5988 46.0747 42.8774 46.06C43.1708 46.0307 43.5741 45.9427 44.0874 45.796C44.3661 45.7373 44.6228 45.686 44.8574 45.642C45.1068 45.5833 45.2828 45.5247 45.3854 45.466C45.5028 45.466 45.6054 45.444 45.6934 45.4C45.7961 45.356 45.8474 45.3047 45.8474 45.246C45.8474 45.1873 45.8914 45.0627 45.9794 44.872C46.0821 44.6813 46.1628 44.5053 46.2214 44.344C46.3388 44.124 46.4781 43.8307 46.6394 43.464C46.8154 43.0827 46.9914 42.7527 47.1674 42.474C47.5341 41.6527 47.7614 41.1247 47.8494 40.89C47.9521 40.6407 48.0328 40.516 48.0914 40.516C48.1501 40.516 48.2308 40.5453 48.3334 40.604C48.4361 40.648 48.5168 40.7287 48.5754 40.846C48.6781 40.9487 48.7441 41.0513 48.7734 41.154C48.8028 41.242 48.7588 41.3887 48.6414 41.594C48.6121 41.77 48.5681 41.924 48.5094 42.056C48.4654 42.1733 48.3921 42.32 48.2894 42.496C48.2014 42.672 48.0694 42.9287 47.8934 43.266C47.7174 43.618 47.5121 44.036 47.2774 44.52C47.0574 45.004 46.8374 45.5027 46.6174 46.016C46.3974 46.5293 46.1921 47.0133 46.0014 47.468C45.8254 47.908 45.6934 48.26 45.6054 48.524C45.4001 49.1107 45.2461 49.5727 45.1434 49.91C45.0408 50.2327 44.9821 50.4893 44.9674 50.68C44.9674 50.856 45.0041 51.0173 45.0774 51.164C45.1068 51.428 45.0481 51.6553 44.9014 51.846C44.7548 52.022 44.5934 52.1173 44.4174 52.132C44.2561 52.1613 44.1461 52.066 44.0874 51.846Z" fill="black"/>
<path d="M70.9854 81.704C70.8828 81.6893 70.7801 81.6527 70.6774 81.594C70.5748 81.5353 70.4721 81.462 70.3694 81.374C70.2814 81.286 70.1934 81.2053 70.1054 81.132C70.0028 80.8827 69.9294 80.692 69.8854 80.56C69.8414 80.428 69.8414 80.208 69.8854 79.9C69.8854 79.724 69.9001 79.5187 69.9294 79.284C69.9734 79.0493 70.0468 78.8587 70.1494 78.712C70.2521 78.4187 70.4134 78.074 70.6334 77.678C70.8681 77.282 71.1174 76.886 71.3814 76.49C71.6601 76.094 71.9168 75.7347 72.1514 75.412C72.4008 75.0747 72.5841 74.8327 72.7014 74.686C72.8628 74.4807 72.9361 74.312 72.9214 74.18C72.9214 74.0333 72.7748 73.762 72.4814 73.366C72.4228 73.2047 72.3568 73.0873 72.2834 73.014C72.2101 72.926 72.2028 72.882 72.2614 72.882C72.2614 72.882 72.2394 72.86 72.1954 72.816C72.1661 72.7573 72.1294 72.6767 72.0854 72.574C71.8654 72.3687 71.7554 72.0533 71.7554 71.628C71.7701 71.2027 71.8801 70.7847 72.0854 70.374C72.3201 69.846 72.5768 69.45 72.8554 69.186C73.1488 68.9073 73.5154 68.7387 73.9554 68.68C74.1168 68.6947 74.3881 68.7387 74.7694 68.812C75.1508 68.8853 75.5468 68.966 75.9574 69.054C76.3681 69.142 76.6981 69.2447 76.9474 69.362C77.1234 69.4353 77.3214 69.5527 77.5414 69.714C77.7761 69.8753 77.9814 70.0367 78.1574 70.198C78.3334 70.3447 78.4288 70.462 78.4434 70.55C78.4434 70.594 78.4654 70.6453 78.5094 70.704C78.5681 70.748 78.6048 70.8067 78.6194 70.88C78.7074 71.0413 78.7514 71.232 78.7514 71.452C78.7661 71.672 78.7514 71.892 78.7074 72.112C78.6634 72.3173 78.5974 72.486 78.5094 72.618C78.1428 73.0287 77.8861 73.2633 77.7394 73.322C77.6661 73.3807 77.5781 73.454 77.4754 73.542C77.3874 73.63 77.2848 73.6887 77.1674 73.718C77.0941 73.8207 77.0208 73.9087 76.9474 73.982C76.8888 74.0553 76.8301 74.092 76.7714 74.092C76.7128 74.048 76.6541 74.026 76.5954 74.026C76.5368 74.0113 76.5074 74.0333 76.5074 74.092C76.5074 74.1213 76.4048 74.1873 76.1994 74.29C76.0088 74.3927 75.8108 74.4807 75.6054 74.554C75.4001 74.6273 75.2681 74.6493 75.2094 74.62C75.2094 74.62 75.1874 74.62 75.1434 74.62C75.0994 74.62 75.0334 74.6493 74.9454 74.708C74.7548 74.6787 74.8648 74.9133 75.2754 75.412C75.6128 76.0427 75.8621 76.6513 76.0234 77.238C76.1994 77.81 76.1774 78.25 75.9574 78.558C75.6788 79.1887 75.3781 79.7093 75.0554 80.12C74.7328 80.516 74.4761 80.7067 74.2854 80.692C74.2854 80.692 74.2488 80.714 74.1754 80.758C74.1168 80.802 74.0508 80.846 73.9774 80.89C73.9481 80.9927 73.8821 81.0587 73.7794 81.088C73.6914 81.132 73.6108 81.1467 73.5374 81.132C73.4054 81.0733 73.1781 81.1467 72.8554 81.352C72.6648 81.484 72.4374 81.5793 72.1734 81.638C71.9241 81.7113 71.6894 81.748 71.4694 81.748C71.2494 81.7627 71.0881 81.748 70.9854 81.704ZM71.3374 80.582C71.4841 80.5967 71.6894 80.5527 71.9534 80.45C72.2174 80.3473 72.4961 80.2153 72.7894 80.054C73.0974 79.878 73.3614 79.7167 73.5814 79.57C74.1388 79.1153 74.5128 78.6753 74.7034 78.25C74.9088 77.8247 74.9234 77.3847 74.7474 76.93C74.6594 76.754 74.5641 76.5633 74.4614 76.358C74.3588 76.1527 74.2708 75.9913 74.1974 75.874C74.1094 75.742 74.0288 75.6467 73.9554 75.588C73.8968 75.5293 73.8308 75.478 73.7574 75.434C73.7574 75.434 73.6988 75.478 73.5814 75.566C73.4788 75.6393 73.3908 75.7567 73.3174 75.918C73.1561 76.1233 73.0241 76.2993 72.9214 76.446C72.8334 76.5927 72.7601 76.7173 72.7014 76.82C72.5988 76.9227 72.5034 77.018 72.4154 77.106C72.3274 77.194 72.2614 77.26 72.2174 77.304C72.2174 77.348 72.1734 77.48 72.0854 77.7C71.9974 77.9053 71.8948 78.1107 71.7774 78.316C71.4548 78.8733 71.2494 79.3867 71.1614 79.856C71.0881 80.3107 71.1468 80.5527 71.3374 80.582ZM74.7474 73.322C75.0554 73.0433 75.3194 72.8893 75.5394 72.86C75.7741 72.816 75.9354 72.8747 76.0234 73.036C76.0528 73.0947 76.2214 73.0287 76.5294 72.838C76.8521 72.6473 77.1308 72.4273 77.3654 72.178C77.4534 72.0167 77.5048 71.892 77.5194 71.804C77.5341 71.716 77.5268 71.5547 77.4974 71.32C77.5121 71.1733 77.4974 71.056 77.4534 70.968C77.4094 70.8653 77.3141 70.77 77.1674 70.682C77.0354 70.594 76.8154 70.4913 76.5074 70.374C75.5981 70.0513 74.8501 69.9487 74.2634 70.066C73.6768 70.1833 73.2808 70.5867 73.0754 71.276C72.9874 71.5547 72.9434 71.804 72.9434 72.024C72.9434 72.244 73.0021 72.4787 73.1194 72.728C73.2514 72.7867 73.3394 72.8673 73.3834 72.97C73.4274 73.058 73.4494 73.102 73.4494 73.102C73.4494 73.234 73.5081 73.3 73.6254 73.3C73.6548 73.3733 73.7574 73.454 73.9334 73.542C74.1094 73.63 74.3808 73.5567 74.7474 73.322Z" fill="black"/>
</svg>
